<svg xmlns="http://www.w3.org/2000/svg" width="420" height="309.728" viewBox="0 0 420 309.728">
  <g id="mos-red" transform="translate(-5384 -3182.24)">
    <path id="Path_370" data-name="Path 370" d="M5532.448,3433.66s-16.5,23.842-20.114,29.531l1.913,2.329-3.086,2.5,1.707.948,3.25,14.173s-7.759-18.122-7.537-20.514c.217-2.407,15-24.687,15-24.687Z" fill="#282727"/>
    <path id="Path_371" data-name="Path 371" d="M5673.949,3339.919l1.51,52.322s4.093-.761,3.242,3.205c15.221,13,41.63,35.209,60.866,61.189,2.716,4.138,5.933,19.122,5.933,19.122l-7.74-16.463-1.843,1.109-.531-3.964-1.37-.015s-32.66-42.426-61.9-59.328c-3.529,1.388-2.654-3.175-1.375-4.913-.077-25.453-.931-53.063-.931-53.063Z"/>
    <path id="Path_372" data-name="Path 372" d="M5611.245,3394.26s-33.143,63.863-34.81,69.154c.04,3.12,6,19.905,6,19.905l-2.374-14.433s2.39-.478-.717-3.555l1.681-1.539-1.931-1.687s26.826-46.923,34.361-66.936C5614.025,3392.22,5612.69,3391.9,5611.245,3394.26Z" fill="#282727"/>
    <path id="Path_373" data-name="Path 373" d="M5619.768,3334.841s.023,24.041-8.523,59.419c1.129,3.038,2.295,2.06,4.531-6.182s7.985-38.086,7.806-51.5A13.612,13.612,0,0,1,5619.768,3334.841Z"/>
    <path id="Path_374" data-name="Path 374" d="M5588.321,3282.425s-2.778-5.933-7.122-2.474c-4.349,3.442-34.637,25.06-56.6,61.4-21.99,36.353-37.846,85.518-28.869,107.619,2.644,1.485,57.276-14.091,74.1-56.819,8.455-24.725,8.959-48.912,10.549-64.174,1.606-15.265,5.711-22.558,8.561-23.356Z" fill="red"/>
    <g id="Group_205" data-name="Group 205" style="mix-blend-mode: multiply;isolation: isolate">
      <path id="Path_375" data-name="Path 375" d="M5560.15,3356.564c4.856,1.653-22.3,15.757-34.675-16.628,3.24-5.257,6.634-10.186,10.108-14.81C5537.414,3331.726,5543.482,3348.046,5560.15,3356.564Z" fill="#000"/>
      <path id="Path_376" data-name="Path 376" d="M5567.251,3330.971c4.326,4.059-20.275,10.414-23.814-15.643,4.4-5.169,8.768-9.82,12.9-13.912C5556.012,3307.8,5556.858,3320.8,5567.251,3330.971Z" fill="#000"/>
      <path id="Path_377" data-name="Path 377" d="M5538.92,3407.517c7.893,3.179-17.794,7.965-39.9-8.574,1.787-6.083,3.929-12.322,6.375-18.575C5510.237,3385.872,5524.171,3400.809,5538.92,3407.517Z" fill="#000"/>
      <path id="Path_378" data-name="Path 378" d="M5553.045,3380.077c7.242,3.436-16.577,20.913-41.993-13.02,2.478-5.414,5.137-10.759,7.939-15.924C5522.282,3357.307,5531.368,3370.308,5553.045,3380.077Z" fill="#000"/>
      <path id="Path_379" data-name="Path 379" d="M5493.938,3422.145a145.333,145.333,0,0,1,3.185-16.3c3.87,4.126,12.572,13.048,20.99,19.242C5523.689,3429.682,5511.082,3432.694,5493.938,3422.145Z" fill="#000"/>
      <path id="Path_380" data-name="Path 380" d="M5577.945,3309.941c1.942,5.305-10.686,5.159-17.164-12.829,4.43-4.166,8.448-7.635,11.758-10.344C5573.046,3291.658,5574.478,3301.858,5577.945,3309.941Z" fill="#000"/>
      <path id="Path_381" data-name="Path 381" d="M5553.454,3411.554c1.365-2.4,6.585-5.586,10.5-7.735a82.233,82.233,0,0,1-8.153,10.921C5553.916,3414.257,5552.469,3413.328,5553.454,3411.554Z" fill="#000"/>
      <path id="Path_382" data-name="Path 382" d="M5521.55,3440.273c-13.54,6.73-24.673,9.341-25.82,8.7a39.21,39.21,0,0,1-2.494-13.273C5496.771,3439.313,5504.791,3443.9,5521.55,3440.273Z" fill="#000"/>
      <path id="Path_383" data-name="Path 383" d="M5569.893,3382.351a19.425,19.425,0,0,1,3.889-3.907c-.716,3-1.527,6.039-2.439,9.084C5569.891,3386.169,5568.584,3384.249,5569.893,3382.351Z" fill="#000"/>
      <path id="Path_384" data-name="Path 384" d="M5580.014,3331.97c-.182,1.892-.349,3.9-.52,5.994-.726-.627-1.5-1.33-2.227-2.061C5575.8,3334.44,5578.242,3332.855,5580.014,3331.97Z" fill="#000"/>
      <path id="Path_385" data-name="Path 385" d="M5574.712,3357.994c1.167-1.394,2.341-2.97,3.314-4.371-.36,3.159-.783,6.423-1.313,9.778C5574.968,3362.257,5572.826,3360.229,5574.712,3357.994Z" fill="#9593a3"/>
    </g>
    <g id="Group_206" data-name="Group 206" style="mix-blend-mode: multiply;isolation: isolate">
      <path id="Path_386" data-name="Path 386" d="M5524.6,3341.353a201.965,201.965,0,0,1,22.13-29.812.327.327,0,0,0,.019.129c-29.416,31.718-44.748,92.762-33.161,82.26,11.593-10.52,32.326-51.773,50.021-96.437-3.19,16.553-17.131,77.148-30.862,94.977s-34.191,52.637-7.155,38.344,42.392-35.337,46.184-67.724c3.792-32.369,1.922-45.561,6.17-53.149a44.677,44.677,0,0,0,5.8-25.2,9.693,9.693,0,0,0-1.762-5.341c3.881-2.2,6.338,3.021,6.338,3.021l.619,22.2c-2.85.8-6.955,8.091-8.561,23.356-1.59,15.262-2.094,39.449-10.549,64.174-16.824,42.728-71.456,58.3-74.1,56.819C5486.753,3426.871,5502.609,3377.706,5524.6,3341.353Z" fill="#9593a3"/>
    </g>
    <g id="Group_214" data-name="Group 214">
      <path id="Path_387" data-name="Path 387" d="M5603.049,3267.91s-15.844-54.053-78.308-78.383c-22.324-7.57-38.434-9.443-40.275-4.669-1.86,4.766,3.4,20.543,34.289,38.958,33.175,19.765,65.228,40.568,74.7,50.329A35.109,35.109,0,0,1,5603.049,3267.91Z" fill="#abe7f4" opacity="0.7" style="mix-blend-mode: multiply;isolation: isolate"/>
      <g id="Group_207" data-name="Group 207" opacity="0.5">
        <path id="Path_388" data-name="Path 388" d="M5599.053,3269.428s-1.2-1.937-3.457-5.237c-2.288-3.291-5.587-7.965-9.827-13.354-2.142-2.668-4.468-5.579-7.037-8.555-2.536-3-5.314-6.082-8.24-9.214-2.963-3.1-6.066-6.288-9.334-9.381-.814-.782-1.636-1.544-2.465-2.336-.839-.761-1.677-1.522-2.529-2.293-1.674-1.534-3.426-3.02-5.159-4.494-1.745-1.5-3.571-2.874-5.343-4.324q-2.714-2.064-5.44-4.073c-1.856-1.274-3.654-2.611-5.523-3.81-.927-.6-1.844-1.191-2.757-1.783-.466-.3-.922-.587-1.374-.877-.478-.283-.925-.557-1.389-.829-1.86-1.083-3.647-2.215-5.491-3.137-1.841-.954-3.59-1.949-5.389-2.753-3.545-1.725-6.994-3.132-10.211-4.327-1.624-.57-3.171-1.114-4.65-1.621-1.513-.424-2.934-.828-4.286-1.19-1.331-.414-2.616-.663-3.8-.909s-2.259-.482-3.23-.684c-1.978-.323-3.533-.527-4.6-.688s-1.626-.228-1.626-.228.565.1,1.622.275,2.61.413,4.579.767c.957.236,2.043.5,3.216.761s2.435.551,3.759.982c1.328.4,2.757.831,4.247,1.276,1.459.541,3.006,1.086,4.614,1.678,3.183,1.244,6.595,2.679,10.1,4.442,1.787.823,3.525,1.82,5.337,2.8,1.831.958,3.6,2.081,5.444,3.153.467.283.931.555,1.389.827.444.306.907.593,1.358.881.912.592,1.819,1.184,2.749,1.8,1.833,1.194,3.631,2.531,5.473,3.8q2.7,2.005,5.4,4.084c1.771,1.448,3.564,2.83,5.289,4.321,1.749,1.472,3.5,2.941,5.172,4.475q1.272,1.137,2.523,2.277c.839.761,1.664,1.54,2.475,2.308,3.264,3.08,6.375,6.231,9.331,9.307,2.919,3.13,5.74,6.157,8.31,9.133,2.594,2.94,4.951,5.8,7.136,8.455,2.125,2.669,4.089,5.119,5.767,7.35,1.687,2.2,3.114,4.174,4.295,5.789C5597.8,3267.524,5599.053,3269.428,5599.053,3269.428Z" fill="#36a2ad"/>
        <path id="Path_389" data-name="Path 389" d="M5595.607,3272.19s-.223-.487-.689-1.367c-.228-.44-.518-.981-.884-1.607-.382-.62-.769-1.36-1.265-2.14s-1.078-1.658-1.668-2.607c-.632-.934-1.35-1.908-2.094-2.976-.385-.529-.765-1.076-1.185-1.627s-.861-1.11-1.315-1.68-.914-1.154-1.393-1.749-.958-1.231-1.49-1.809c-1.06-1.2-2.168-2.451-3.3-3.736-.567-.658-1.177-1.288-1.8-1.916-.62-.643-1.251-1.282-1.894-1.95-2.5-2.681-5.427-5.22-8.38-7.912-.735-.683-1.512-1.328-2.3-1.967-.8-.637-1.59-1.276-2.394-1.914-.791-.655-1.6-1.317-2.4-1.969s-1.606-1.333-2.475-1.935q-2.563-1.842-5.137-3.713c-.868-.619-1.724-1.239-2.581-1.861-.883-.612-1.795-1.159-2.691-1.755-1.8-1.128-3.593-2.291-5.4-3.418-.9-.564-1.779-1.163-2.693-1.68s-1.838-1.045-2.753-1.544c-1.835-1.032-3.658-2.049-5.455-3.048-.9-.5-1.779-1-2.674-1.49-.915-.457-1.81-.9-2.7-1.337-3.594-1.757-7.064-3.442-10.388-5.021-3.378-1.4-6.574-2.746-9.526-3.968-1.468-.613-2.88-1.213-4.239-1.767-1.366-.477-2.662-.93-3.9-1.371-2.447-.845-4.585-1.6-6.329-2.206-3.522-1.228-5.533-1.941-5.533-1.941l5.473,2.061c1.75.668,3.869,1.455,6.289,2.366,1.212.448,2.51.944,3.867,1.455q2.005.862,4.209,1.82c2.921,1.277,6.1,2.642,9.452,4.079,3.277,1.637,6.729,3.342,10.29,5.106.9.445,1.8.905,2.711,1.35.879.495,1.765.991,2.658,1.5,1.788,1.013,3.6,2.036,5.42,3.069q1.351.759,2.738,1.552c.913.513,1.778,1.119,2.682,1.682,1.771,1.137,3.566,2.3,5.353,3.429.9.579,1.813,1.125,2.678,1.731s1.729,1.237,2.585,1.857c1.726,1.224,3.436,2.453,5.143,3.668.859.59,1.658,1.272,2.465,1.923.8.635,1.62,1.282,2.412,1.938.8.634,1.59,1.276,2.376,1.915.8.624,1.583,1.25,2.31,1.923,2.931,2.7,5.884,5.183,8.42,7.812.64.651,1.291,1.285,1.913,1.912.634.61,1.251,1.224,1.817,1.882,1.146,1.282,2.267,2.514,3.335,3.685,1.089,1.18,1.994,2.41,2.929,3.515.471.565.918,1.109,1.35,1.638s.823,1.078,1.215,1.59c.768,1.047,1.5,2,2.157,2.93.629.924,1.191,1.776,1.709,2.551.54.769.942,1.5,1.334,2.118s.677,1.133.914,1.57C5595.384,3271.7,5595.607,3272.19,5595.607,3272.19Z" fill="#36a2ad"/>
      </g>
      <g id="Group_208" data-name="Group 208" opacity="0.5">
        <path id="Path_390" data-name="Path 390" d="M5577.782,3226.071s.265.473.76,1.33,1.138,2.1,1.951,3.58,1.69,3.225,2.615,5.1c.487.935.926,1.923,1.412,2.915.47,1,.918,2.015,1.384,3.042.436,1.021.9,2.05,1.3,3.065.393,1.032.833,2.023,1.184,3.01s.732,1.931,1.006,2.849c.3.911.6,1.777.826,2.576.21.815.419,1.558.62,2.217.185.66.289,1.239.4,1.729.219.946.347,1.506.347,1.506s-.054-.564-.2-1.548c-.075-.471-.123-1.08-.255-1.755-.147-.674-.28-1.437-.469-2.259s-.462-1.711-.694-2.641c-.252-.94-.6-1.9-.921-2.92-.324-.991-.725-2.008-1.111-3.057-.4-1.03-.861-2.063-1.3-3.1-.934-2.054-1.9-4.1-2.9-5.957s-2-3.551-2.87-5C5579.132,3227.875,5577.782,3226.071,5577.782,3226.071Z" fill="#4bb3c4"/>
        <path id="Path_391" data-name="Path 391" d="M5592.969,3246.477s-.2.411-.415,1.019c-.107.3-.232.661-.363,1.039s-.259.77-.4,1.164a21.494,21.494,0,0,1-.843,2.135c-.062.153-.152.266-.205.384a2.5,2.5,0,0,1-.175.287c-.1.163-.165.254-.165.254s.109-.045.274-.134a1.373,1.373,0,0,0,.3-.2c.088-.1.227-.182.339-.318a2.936,2.936,0,0,0,.356-.426,3.6,3.6,0,0,0,.332-.509c.1-.19.224-.376.3-.574.073-.215.162-.416.24-.632a8.861,8.861,0,0,0,.459-2.371A5.253,5.253,0,0,0,5592.969,3246.477Z" fill="#4bb3c4"/>
        <path id="Path_392" data-name="Path 392" d="M5561.516,3210.392s.263.4.715,1.1,1.057,1.709,1.781,2.93c.745,1.215,1.551,2.668,2.4,4.214.428.786.864,1.6,1.3,2.412.413.833.873,1.671,1.257,2.527.418.849.845,1.693,1.2,2.542.375.861.767,1.686,1.083,2.5.335.826.7,1.616.965,2.372s.574,1.471.778,2.158c.205.668.441,1.286.606,1.832.169.564.3,1.044.415,1.444.24.8.383,1.244.383,1.244s-.084-.466-.227-1.288c-.074-.41-.166-.9-.271-1.484-.138-.554-.288-1.2-.465-1.887s-.428-1.425-.667-2.217-.525-1.607-.844-2.438c-.313-.847-.655-1.7-1.041-2.541-.363-.88-.783-1.743-1.184-2.595-.852-1.72-1.756-3.4-2.662-4.941-.9-1.527-1.844-2.927-2.63-4.1-.807-1.186-1.544-2.122-2.058-2.78S5561.516,3210.392,5561.516,3210.392Z" fill="#4bb3c4"/>
        <path id="Path_393" data-name="Path 393" d="M5544.546,3198.872s.139.227.356.629c.1.208.253.433.381.723s.3.6.485.947.34.738.541,1.125c.173.411.394.827.563,1.269s.381.9.574,1.367c.216.46.375.966.547,1.436s.363.969.545,1.45c.146.48.28.961.424,1.412.145.477.284.913.415,1.337.151.417.22.829.325,1.2.169.769.342,1.389.465,1.829l.193.687s-.012-.248-.035-.7-.087-1.118-.172-1.9a8.451,8.451,0,0,0-.189-1.252c-.1-.45-.2-.911-.312-1.383-.118-.488-.219-.992-.385-1.48s-.348-.974-.517-1.474a13.874,13.874,0,0,0-.586-1.453c-.219-.474-.44-.933-.635-1.382-.218-.446-.475-.848-.708-1.243a11.541,11.541,0,0,0-.658-1.092c-.22-.309-.441-.6-.629-.862s-.371-.476-.509-.66A4.557,4.557,0,0,0,5544.546,3198.872Z" fill="#4bb3c4"/>
        <path id="Path_394" data-name="Path 394" d="M5580.939,3245.079a16.43,16.43,0,0,0-1.568-.765c-.949-.432-2.246-.929-3.547-1.383-1.3-.419-2.644-.8-3.655-1.023s-1.711-.322-1.711-.322.614.332,1.564.749c.948.432,2.235.934,3.547,1.382,1.3.422,2.644.8,3.656,1.026S5580.939,3245.079,5580.939,3245.079Z" fill="#4bb3c4"/>
        <path id="Path_395" data-name="Path 395" d="M5565.724,3228.645s-.97-.487-2.479-1.059a44,44,0,0,0-5.683-1.673c-.52-.124-1.054-.212-1.574-.332s-1.03-.187-1.53-.255c-1.011-.119-1.929-.276-2.752-.3-.8-.058-1.471-.065-1.938-.082s-.745-.014-.745-.014.255.062.713.17c.472.091,1.12.237,1.916.37s1.69.375,2.679.558,2.012.447,3.053.673c1.051.2,2.071.491,3.058.689.974.231,1.88.452,2.655.637C5564.673,3228.4,5565.724,3228.645,5565.724,3228.645Z" fill="#4bb3c4"/>
        <path id="Path_396" data-name="Path 396" d="M5533.176,3215.253s3.248,4.076,6.5,8.156c.409.508.8,1.037,1.193,1.55s.783,1,1.153,1.474c.7,1.008,1.382,1.9,1.957,2.69.544.826.983,1.5,1.3,1.981s.5.75.5.75-.11-.31-.357-.82c-.263-.5-.584-1.277-1.052-2.142-.511-.835-1.1-1.827-1.781-2.87-.348-.5-.714-1.018-1.095-1.534s-.772-1.06-1.17-1.573c-.844-1.011-1.639-2.051-2.484-2.942-.811-.931-1.61-1.76-2.292-2.461-.676-.717-1.29-1.256-1.7-1.66C5533.426,3215.464,5533.176,3215.253,5533.176,3215.253Z" fill="#4bb3c4"/>
        <path id="Path_397" data-name="Path 397" d="M5551.813,3226.958s.7,1,1.756,2.55c.524.758,1.146,1.655,1.8,2.6.674.937,1.339,1.969,2.036,2.992.364.492.675,1.026,1.007,1.53s.657,1,.97,1.479c.6.989,1.14,1.923,1.631,2.706.243.392.408.774.594,1.11s.336.618.463.866c.245.464.416.742.416.742s-.1-.3-.274-.814c-.084-.257-.205-.564-.332-.917s-.257-.773-.437-1.212c-.217-.4-.438-.858-.677-1.341s-.47-1-.78-1.5-.6-1-.916-1.537c-.338-.5-.637-1.055-.989-1.567-.367-.505-.718-1.014-1.076-1.507-.335-.517-.706-.992-1.058-1.444-.716-.925-1.4-1.759-2.026-2.459C5552.708,3227.821,5551.813,3226.958,5551.813,3226.958Z" fill="#4bb3c4"/>
        <path id="Path_398" data-name="Path 398" d="M5523.354,3189.143s.4.6,1.016,1.5c.315.444.628.981,1.022,1.522.166.28.338.588.544.889.169.294.385.59.537.9.189.3.362.611.524.921a7.538,7.538,0,0,1,.49.9c.284.6.627,1.147.813,1.645.408.982.76,1.642.76,1.642s-.081-.7-.328-1.795a2.957,2.957,0,0,0-.25-.85c-.1-.3-.22-.621-.356-.94a5.185,5.185,0,0,0-.431-.961c-.177-.324-.343-.648-.525-.967-.37-.64-.8-1.231-1.21-1.8a14.754,14.754,0,0,0-1.244-1.4A9.135,9.135,0,0,0,5523.354,3189.143Z" fill="#4bb3c4"/>
        <path id="Path_399" data-name="Path 399" d="M5515.987,3192.036s-.511.039-1.39.019c-.448-.007-.99-.021-1.591-.058-.617-.036-1.321-.108-2.066-.165-.752-.1-1.558-.172-2.421-.318-.849-.118-1.744-.3-2.682-.465-.919-.159-1.857-.431-2.834-.633-.945-.253-1.923-.5-2.892-.779-.957-.3-1.932-.555-2.864-.905-.927-.334-1.869-.62-2.733-.957l-2.547-.994c-.8-.323-1.541-.665-2.246-.974s-1.333-.562-1.884-.838c-.568-.27-1.035-.513-1.439-.7-.8-.368-1.262-.581-1.262-.581s.427.265,1.18.723c.4.231.852.5,1.385.813.531.344,1.147.645,1.823.992s1.409.731,2.208,1.1c.8.355,1.644.727,2.509,1.107.888.361,1.809.7,2.76,1.053s1.922.622,2.887.93c.98.273,1.969.517,2.946.764.972.2,1.945.434,2.888.558a27.42,27.42,0,0,0,2.729.361c.872.1,1.7.135,2.454.19a35.37,35.37,0,0,0,3.691-.067C5515.481,3192.135,5515.987,3192.036,5515.987,3192.036Z" fill="#4bb3c4"/>
        <path id="Path_400" data-name="Path 400" d="M5542.611,3208.5s-.534.013-1.448.017c-.474,0-1.024.02-1.672-.021-.63-.017-1.352-.052-2.134-.056-.792-.059-1.642-.12-2.538-.2-.451-.021-.907-.055-1.373-.09-.48-.057-.959-.116-1.45-.173-.964-.115-1.975-.234-3-.333-1.024-.144-2.058-.343-3.081-.5-1.043-.169-2.077-.31-3.085-.517-1.011-.224-2.008-.434-2.964-.626s-1.881-.393-2.781-.587c-.876-.172-1.679-.436-2.446-.635-1.526-.406-2.8-.718-3.69-.943s-1.405-.348-1.405-.348.478.179,1.37.491c.852.3,2.09.751,3.592,1.236.766.232,1.565.543,2.445.772s1.806.457,2.764.7,1.946.479,2.96.713c1.024.2,2.073.355,3.1.543,1.055.148,2.089.35,3.116.462s2.058.2,3.046.276c.49.056.976.1,1.443.132.484.012.959.012,1.407.02.9.031,1.759.042,2.551.058,1.587-.057,2.9-.114,3.815-.221C5542.086,3208.586,5542.611,3208.5,5542.611,3208.5Z" fill="#4bb3c4"/>
        <path id="Path_401" data-name="Path 401" d="M5493.344,3197.322s.3.242.834.643,1.262,1.013,2.157,1.712c.447.335.919.738,1.421,1.147s1.033.836,1.589,1.292,1.093.926,1.671,1.4,1.142.956,1.706,1.482c.567.495,1.139.989,1.685,1.472.569.481,1.1.986,1.618,1.478s1.035.928,1.525,1.355.927.869,1.314,1.264c.809.8,1.506,1.448,1.993,1.908.483.443.776.7.776.7s-.248-.3-.656-.812c-.424-.5-1.024-1.259-1.784-2.114a16.176,16.176,0,0,0-1.237-1.36c-.46-.465-.927-.974-1.436-1.468s-1.007-1.055-1.591-1.528c-.551-.5-1.127-1.007-1.686-1.519s-1.154-1-1.74-1.457-1.166-.921-1.733-1.356c-.555-.452-1.135-.825-1.66-1.213-.532-.37-1.038-.734-1.509-1.048C5494.7,3198.041,5493.344,3197.322,5493.344,3197.322Z" fill="#4bb3c4"/>
      </g>
      <g id="Group_209" data-name="Group 209">
        <path id="Path_402" data-name="Path 402" d="M5484.466,3184.858c1.659-4.307,14.944-3.2,33.92,2.6-9.924-1.9-19.079-3.195-23.036-2.53-10.561,1.782,20.191,18.765,53.673,40,33.262,21.089,58.741,43.527,34.055,7.284,15.077,19,19.971,35.694,19.971,35.694a35.109,35.109,0,0,0-9.6,6.235c-9.469-9.761-41.522-30.564-74.7-50.329C5487.868,3205.4,5482.606,3189.624,5484.466,3184.858Z" fill="#abe7f4" opacity="0.7" style="mix-blend-mode: multiply;isolation: isolate"/>
      </g>
      <g id="Group_210" data-name="Group 210" opacity="0.7" style="mix-blend-mode: multiply;isolation: isolate">
        <path id="Path_403" data-name="Path 403" d="M5545.56,3230.34c34.023,20.564,43.568,35.782,48.291,33.035s-1.836-18.177-1.836-18.177l.158-.015c8.012,13.033,10.876,22.727,10.876,22.727a35.109,35.109,0,0,0-9.6,6.235c-9.469-9.761-41.522-30.564-74.7-50.329-24.591-14.654-32.928-27.625-34.384-34.729C5489.311,3202.326,5517.648,3213.454,5545.56,3230.34Z" fill="#979d9e" opacity="0.7" style="mix-blend-mode: multiply;isolation: isolate"/>
      </g>
      <path id="Path_404" data-name="Path 404" d="M5588.6,3278.339s-14.311-8.761-88.5-11.029c-64.29-1.951-108.4-26.36-115.69-56.218-5.632-23.943,48.63-20,79.781-13.831,31.134,6.172,96.582,33.573,129.265,76.884Z" fill="#abe7f4" opacity="0.7" style="mix-blend-mode: multiply;isolation: isolate"/>
      <g id="Group_211" data-name="Group 211" opacity="0.5">
        <path id="Path_405" data-name="Path 405" d="M5589.6,3277.034a13.01,13.01,0,0,0-1.644-1.635c-.582-.487-1.3-1.058-2.2-1.7-.91-.6-1.92-1.36-3.157-2.056-.6-.363-1.247-.733-1.917-1.124-.688-.386-1.414-.747-2.162-1.146-.761-.383-1.537-.816-2.369-1.209-.835-.373-1.7-.77-2.6-1.169-1.768-.856-3.73-1.6-5.783-2.421-2.043-.866-4.23-1.591-6.517-2.377-1.151-.39-2.307-.821-3.512-1.2s-2.433-.728-3.683-1.122c-1.242-.364-2.508-.75-3.81-1.144-1.273-.37-2.617-.708-3.949-1.062s-2.71-.725-4.068-1.072c-.691-.194-1.4-.366-2.09-.558-.693-.161-1.4-.32-2.111-.494-2.837-.644-5.729-1.318-8.678-1.992-2.961-.612-5.988-1.191-9.041-1.8-1.53-.316-3.065-.613-4.591-.914-1.555-.263-3.115-.523-4.69-.794-3.13-.533-6.285-1.076-9.446-1.615l-9.559-1.378c-6.383-.988-12.826-1.531-19.119-2.264-3.14-.365-6.276-.734-9.357-1.09q-4.639-.572-9.139-1.137c-2.99-.409-5.936-.8-8.813-1.2-2.88-.427-5.691-.812-8.428-1.264-5.454-.878-10.633-1.761-15.36-2.752-4.737-.96-9.03-2.029-12.813-3.077-1.869-.577-3.636-1.06-5.231-1.669-.8-.294-1.579-.537-2.3-.841s-1.381-.591-2.037-.868c-.665-.244-1.243-.572-1.827-.839-.536-.282-1.072-.545-1.554-.8-.942-.552-1.756-1.022-2.383-1.44-1.239-.871-1.876-1.347-1.876-1.347s.637.476,1.857,1.382c.637.415,1.425.892,2.359,1.478.49.262,1.011.532,1.567.823.551.274,1.138.615,1.791.878s1.331.577,2.045.9c.711.3,1.494.56,2.277.876,1.6.619,3.362,1.136,5.231,1.756,3.763,1.1,8.065,2.239,12.813,3.2,4.729,1.035,9.9,1.948,15.365,2.852,2.726.454,5.555.864,8.428,1.306q4.307.623,8.814,1.26c3,.378,6.038.79,9.129,1.186q4.632.547,9.357,1.133c6.318.757,12.714,1.34,19.085,2.349q4.786.66,9.563,1.33c3.157.526,6.315,1.036,9.442,1.559,1.58.269,3.131.518,4.676.783s3.084.578,4.6.863c3.051.6,6.068,1.167,9.033,1.775,2.945.659,5.844,1.318,8.674,1.938.7.173,1.418.329,2.117.489.7.176,1.389.355,2.06.538,1.4.35,2.737.7,4.1,1.049,1.332.356,2.669.665,3.946,1.049,1.292.379,2.555.754,3.8,1.117s2.5.743,3.675,1.095c1.221.37,2.374.788,3.517,1.168,2.3.766,4.489,1.5,6.52,2.33,2.072.786,4.026,1.5,5.8,2.323.9.4,1.772.769,2.606,1.143s1.617.795,2.389,1.172c.749.383,1.493.724,2.166,1.1s1.339.754,1.941,1.1c1.238.663,2.261,1.4,3.185,1.99.906.635,1.64,1.187,2.223,1.678A12.968,12.968,0,0,1,5589.6,3277.034Z" fill="#36a2ad"/>
        <path id="Path_406" data-name="Path 406" d="M5591.725,3275.606s-2.466-2.44-7.221-6.217c-1.18-.946-2.5-1.985-3.97-3.058-.733-.553-1.491-1.128-2.273-1.71-.8-.577-1.649-1.157-2.5-1.763-.857-.622-1.755-1.245-2.666-1.9-.931-.615-1.9-1.265-2.879-1.911s-2.008-1.324-3.046-2.012c-1.053-.64-2.134-1.318-3.246-2-1.095-.686-2.227-1.379-3.373-2.082-1.162-.7-2.358-1.375-3.578-2.072s-2.443-1.408-3.687-2.131-2.573-1.4-3.882-2.1c-2.631-1.4-5.3-2.9-8.121-4.243-1.381-.7-2.81-1.4-4.243-2.109-.694-.37-1.415-.715-2.141-1.076-.733-.344-1.468-.674-2.2-1.019-2.956-1.339-5.948-2.741-9-4.1q-4.619-1.959-9.343-3.931c-3.153-1.3-6.379-2.488-9.594-3.74-1.607-.589-3.2-1.271-4.845-1.821l-4.914-1.7-4.911-1.684c-.818-.275-1.629-.569-2.457-.841l-2.488-.759c-3.293-.993-6.574-2-9.835-3q-4.893-1.481-9.685-2.945c-.8-.251-1.6-.488-2.375-.731-.806-.234-1.607-.426-2.408-.644-1.588-.418-3.175-.837-4.745-1.257-3.143-.827-6.235-1.64-9.246-2.429-1.515-.391-3.01-.789-4.485-1.178-1.5-.323-2.972-.652-4.424-.96-2.91-.638-5.736-1.242-8.473-1.841-1.364-.3-2.7-.58-4.031-.877-1.34-.218-2.644-.432-3.921-.653-5.132-.821-9.825-1.688-14.043-1.992-2.088-.2-4.049-.426-5.875-.584-1.831-.066-3.505-.115-5.013-.185-.759-.025-1.482-.045-2.152-.063-.68.011-1.314.041-1.9.055-1.163.045-2.158.086-2.985.109-1.611.139-2.475.218-2.475.218s.867-.066,2.475-.175c.818-.035,1.811-.044,2.993-.079.59,0,1.212-.013,1.887-.04.679.047,1.391.088,2.15.113,1.51.081,3.182.163,5,.26,1.814.175,3.768.415,5.857.661,4.212.366,8.871,1.3,14,2.137,1.266.224,2.586.433,3.911.658,1.317.3,2.659.59,4.023.891,2.736.614,5.555,1.237,8.454,1.9,1.455.318,2.915.653,4.4.965,1.479.4,2.973.8,4.483,1.208,3,.808,6.094,1.636,9.214,2.484,1.572.405,3.157.838,4.744,1.253.792.224,1.59.432,2.386.669s1.59.49,2.389.74c3.186.981,6.405,2,9.67,2.994,3.238,1.023,6.525,2.033,9.824,3.069l2.457.753c.814.262,1.64.565,2.446.843l4.9,1.7,4.91,1.684c1.638.537,3.242,1.184,4.853,1.787,3.211,1.239,6.446,2.4,9.6,3.682,3.137,1.3,6.26,2.6,9.337,3.874,3.061,1.339,6.049,2.731,9.022,4.066.717.332,1.454.647,2.176.994s1.448.706,2.154,1.058c1.443.71,2.851,1.4,4.249,2.092,2.827,1.332,5.493,2.812,8.137,4.2,1.3.7,2.609,1.362,3.863,2.079s2.495,1.425,3.71,2.11c1.2.7,2.412,1.358,3.57,2.041,1.167.715,2.276,1.412,3.39,2.081s2.195,1.33,3.248,1.97c1.043.689,2.054,1.34,3.055,1.98.994.657,1.955,1.279,2.9,1.891.913.618,1.818,1.242,2.693,1.827.87.6,1.711,1.17,2.506,1.735.8.592,1.578,1.13,2.311,1.682,1.482,1.056,2.805,2.08,4,3.006C5589.213,3273.207,5591.725,3275.606,5591.725,3275.606Z" fill="#36a2ad"/>
        <path id="Path_407" data-name="Path 407" d="M5558.4,3261.439a1.583,1.583,0,0,1-.352.188c-.24.1-.583.3-1.058.458-.495.139-1.075.359-1.793.546-.71.17-1.532.357-2.451.568-.943.145-1.977.316-3.1.5s-2.365.231-3.675.389c-.668.054-1.332.121-2.027.182-.7.035-1.425.058-2.158.087-1.483.056-3.031.148-4.652.188-1.633,0-3.329,0-5.077,0-.862,0-1.757-.012-2.66-.011-.916-.027-1.822-.039-2.75-.064-3.726-.1-7.647-.217-11.714-.311s-8.26-.254-12.519-.4c-4.255-.189-8.586-.343-12.9-.6-2.174-.117-4.329-.229-6.487-.351-2.15-.156-4.3-.309-6.42-.459-4.243-.355-8.427-.729-12.419-1.362-4-.6-7.865-1.406-11.492-2.185-3.626-.8-7.058-1.6-10.2-2.432-1.575-.374-3.075-.814-4.493-1.2-1.438-.384-2.791-.749-4.057-1.136s-2.436-.744-3.532-1.06c-1.08-.366-2.08-.693-2.98-.991-1.811-.578-3.188-1.156-4.145-1.5-.946-.36-1.448-.561-1.448-.561s.5.214,1.444.591,2.3.972,4.094,1.6c.909.309,1.881.66,2.969,1.053,1.082.351,2.254.734,3.514,1.14s2.6.816,4.026,1.234,2.918.873,4.5,1.278c3.134.858,6.545,1.715,10.17,2.569,3.66.816,7.478,1.677,11.525,2.283,4.026.653,8.2,1.058,12.47,1.437,2.119.148,4.273.317,6.423.474,2.158.121,4.32.257,6.493.392,4.33.229,8.657.366,12.919.539,4.262.115,8.478.268,12.532.337,4.063.125,7.993.168,11.715.211.942.016,1.844.015,2.752.03.9-.015,1.808-.031,2.684-.024,1.745-.029,3.446-.031,5.077-.056,1.624-.07,3.169-.175,4.664-.252.725-.056,1.459-.1,2.153-.143.707-.08,1.367-.16,2.031-.228,1.314-.188,2.557-.255,3.68-.48,1.116-.208,2.163-.4,3.1-.555.911-.24,1.741-.458,2.451-.628.711-.213,1.3-.439,1.777-.6s.835-.366,1.07-.476A1.986,1.986,0,0,0,5558.4,3261.439Z" fill="#36a2ad"/>
        <path id="Path_408" data-name="Path 408" d="M5459.631,3212.224a26.189,26.189,0,0,1-3.057,1.05c-.974.3-2.187.58-3.6.9-.687.132-1.435.269-2.224.429-.8.12-1.633.264-2.5.4s-1.779.26-2.734.366c-.933.1-1.907.236-2.906.325-2.023.135-4.136.339-6.345.41-1.1.039-2.215.085-3.338.147-1.131-.01-2.286,0-3.44.012-2.321.041-4.665-.06-7-.133-2.356-.023-4.7-.2-7.016-.337-1.157-.06-2.3-.113-3.428-.212s-2.256-.2-3.34-.312c-2.2-.215-4.322-.349-6.327-.6l-5.663-.672c-1.749-.193-3.364-.438-4.784-.634s-2.64-.375-3.664-.519c-2.05-.271-3.223-.432-3.223-.432s1.173.2,3.181.593c1.03.187,2.25.41,3.671.649,1.41.259,3,.573,4.749.794,1.76.251,3.664.52,5.656.792,2.007.329,4.134.5,6.324.739,1.111.1,2.227.221,3.358.336s2.285.162,3.436.238c2.328.153,4.671.357,7.031.394s4.725.132,7.053.074c1.156-.026,2.31-.039,3.444-.059,1.127-.049,2.256-.11,3.355-.152,2.225-.073,4.344-.339,6.367-.535,1.012-.107,1.976-.258,2.924-.388s1.856-.253,2.745-.427c.856-.167,1.706-.315,2.478-.471.792-.193,1.533-.356,2.244-.527,1.383-.369,2.595-.694,3.568-1.042.992-.321,1.738-.634,2.243-.836C5459.372,3212.354,5459.631,3212.224,5459.631,3212.224Z" fill="#36a2ad"/>
        <path id="Path_409" data-name="Path 409" d="M5444.576,3229.293s-.074-.1-.2-.3a10.177,10.177,0,0,0-.629-.8c-.289-.35-.663-.735-1.1-1.177a19.957,19.957,0,0,0-1.527-1.384c-.6-.486-1.26-.983-1.977-1.48s-1.493-.991-2.307-1.461c-.838-.448-1.684-.969-2.595-1.369-.907-.428-1.814-.858-2.775-1.21l-1.4-.558c-.483-.177-.97-.324-1.44-.474-.933-.317-1.864-.62-2.79-.85-.921-.249-1.8-.492-2.653-.669-.86-.159-1.648-.326-2.39-.475s-1.436-.249-2.051-.317c-.6-.083-1.137-.156-1.57-.212-.875-.11-1.366-.166-1.366-.166s.489.114,1.335.323,2.1.438,3.556.816c.721.2,1.505.4,2.354.617.83.213,1.683.51,2.586.76s1.816.592,2.749.909c.463.166.934.318,1.4.483l1.39.563c.942.344,1.845.76,2.738,1.178.9.37,1.747.845,2.577,1.267.81.456,1.614.885,2.336,1.337s1.409.9,2.006,1.336c.615.439,1.156.88,1.63,1.251.466.405.859.755,1.169,1.054C5444.249,3228.91,5444.576,3229.293,5444.576,3229.293Z" fill="#36a2ad"/>
        <path id="Path_410" data-name="Path 410" d="M5496.23,3224.066s-1.646.446-4.51,1.129c-1.425.37-3.185.759-5.2,1.19-.99.248-2.078.431-3.207.66-1.142.2-2.323.485-3.559.684s-2.556.418-3.9.648c-1.336.211-2.752.339-4.186.532-1.439.212-2.918.285-4.424.365-.773.051-1.528.1-2.3.155-.757,0-1.549-.012-2.357-.024-1.579-.018-3.188,0-4.81-.065s-3.261-.155-4.923-.24c-3.323-.108-6.683-.386-10.057-.613-3.362-.187-6.729-.492-10.041-.765-1.657-.133-3.313-.277-4.923-.405-1.617-.155-3.223-.33-4.8-.482-3.146-.321-6.2-.565-9.075-.932-2.884-.335-5.622-.669-8.135-.96-2.5-.369-4.8-.688-6.837-.98-1.012-.162-1.972-.264-2.843-.437s-1.682-.345-2.4-.484c-2.9-.569-4.551-.879-4.551-.879s1.633.376,4.52,1.035c.714.173,1.521.347,2.389.535.866.217,1.83.333,2.845.508,2.032.352,4.321.735,6.827,1.148,2.513.335,5.23.718,8.115,1.1,2.876.41,5.929.713,9.079,1.049,1.564.17,3.166.332,4.8.5,1.613.142,3.259.291,4.918.449,3.317.275,6.686.608,10.069.8,3.367.2,6.737.475,10.076.579,1.648.057,3.3.143,4.942.205s3.239.014,4.818.032c.8,0,1.567.036,2.379,0,.773-.051,1.555-.108,2.312-.155,1.53-.116,3.011-.221,4.46-.462,1.44-.212,2.849-.369,4.2-.6,1.344-.243,2.641-.488,3.885-.717,2.5-.492,4.765-1.007,6.768-1.478,1.992-.515,3.747-.945,5.175-1.345,1.424-.369,2.533-.709,3.285-.937C5495.817,3224.181,5496.23,3224.066,5496.23,3224.066Z" fill="#36a2ad"/>
        <path id="Path_411" data-name="Path 411" d="M5511.053,3229.135a1.622,1.622,0,0,1-.093.307,4.832,4.832,0,0,1-.413.8,6.166,6.166,0,0,1-.909,1.055,4.443,4.443,0,0,1-.645.568,6.611,6.611,0,0,1-.745.565c-.289.186-.559.38-.864.569-.309.159-.645.343-.986.513-.667.364-1.425.637-2.173.979-.789.267-1.592.579-2.429.814s-1.684.517-2.554.7c-.875.2-1.736.413-2.594.593-.877.156-1.722.32-2.541.474s-1.632.249-2.385.37c-.769.128-1.479.238-2.152.336-1.328.135-2.436.312-3.211.4-.784.115-1.229.178-1.229.178l1.228-.016c.791-.028,1.919-.049,3.267-.113.668-.054,1.4-.126,2.169-.191.765-.081,1.592-.1,2.421-.264.838-.13,1.707-.269,2.577-.409.867-.167,1.759-.373,2.644-.56.881-.2,1.745-.506,2.594-.759s1.656-.6,2.463-.9c.778-.366,1.527-.709,2.2-1.106.323-.21.656-.406.958-.61s.591-.432.861-.626a5.245,5.245,0,0,0,.737-.652,4,4,0,0,0,.606-.644,7.056,7.056,0,0,0,.816-1.18,3.587,3.587,0,0,0,.333-.878A1.606,1.606,0,0,0,5511.053,3229.135Z" fill="#36a2ad"/>
        <path id="Path_412" data-name="Path 412" d="M5493.879,3247.645s-.244-.5-.757-1.316c-.274-.4-.575-.9-.991-1.43-.2-.271-.409-.554-.645-.861-.244-.288-.49-.589-.756-.9-.532-.638-1.161-1.293-1.814-1.973a26.838,26.838,0,0,0-2.2-2.026c-.406-.332-.8-.682-1.211-1s-.865-.65-1.3-.97c-.869-.663-1.833-1.212-2.748-1.815-.956-.563-1.956-1.056-2.9-1.578-.993-.466-1.98-.869-2.935-1.3-.961-.354-1.922-.663-2.814-.977s-1.784-.482-2.574-.721a22.255,22.255,0,0,0-2.185-.485c-.673-.11-1.247-.215-1.72-.291-.945-.153-1.5-.221-1.5-.221s.541.132,1.456.38c.474.1,1.039.259,1.675.423.661.127,1.363.405,2.139.633.787.269,1.649.473,2.52.837.869.335,1.787.718,2.742,1.09.907.429,1.875.869,2.832,1.328.934.526,1.9,1.012,2.838,1.582.906.591,1.88,1.091,2.712,1.749.449.32.889.61,1.312.923s.824.646,1.209.97c.826.614,1.548,1.288,2.255,1.892.682.639,1.326,1.246,1.883,1.849s1.071,1.138,1.5,1.657c.448.483.788.952,1.1,1.324C5493.569,3247.182,5493.879,3247.645,5493.879,3247.645Z" fill="#36a2ad"/>
        <path id="Path_413" data-name="Path 413" d="M5475.443,3216.733s-.355-.523-1.046-1.4c-.342-.436-.771-.956-1.28-1.554s-1.07-1.26-1.738-1.95c-.639-.713-1.365-1.444-2.148-2.218s-1.625-1.564-2.516-2.368c-.931-.764-1.85-1.606-2.844-2.367s-1.984-1.568-3.05-2.294c-.532-.37-1.037-.748-1.583-1.085-.524-.342-1.065-.683-1.6-1.021-1.049-.684-2.138-1.27-3.193-1.852-1.029-.618-2.095-1.075-3.086-1.555-.5-.231-.977-.453-1.452-.679-.47-.192-.938-.374-1.394-.559-.9-.342-1.7-.667-2.434-.921-.746-.223-1.4-.425-1.92-.592-1.065-.309-1.694-.489-1.694-.489s.6.232,1.632.64c.513.2,1.147.437,1.88.721.706.309,1.5.7,2.363,1.078.436.173.9.386,1.353.6.453.229.924.485,1.41.733.957.5,1.976,1.022,3.01,1.638,1.017.589,2.085,1.182,3.127,1.885.52.329,1.05.67,1.575,1.015s1.038.733,1.555,1.092c1.046.717,2.046,1.476,3.045,2.235s1.907,1.559,2.84,2.308c.892.789,1.78,1.521,2.578,2.261s1.559,1.436,2.228,2.108c1.377,1.322,2.468,2.472,3.221,3.3S5475.443,3216.733,5475.443,3216.733Z" fill="#36a2ad"/>
        <path id="Path_414" data-name="Path 414" d="M5461.492,3203.864s-3.042-.529-7.621-1.339c-2.276-.4-4.933-.919-7.787-1.457s-5.883-1.129-8.889-1.8c-1.526-.3-3.031-.654-4.517-.979s-2.926-.693-4.328-1.03c-1.409-.361-2.768-.71-4.05-1.048-1.293-.321-2.478-.687-3.61-1.01-1.106-.312-2.115-.669-3.016-.935-.9-.283-1.673-.556-2.307-.8-1.269-.461-2-.731-2-.731s.714.321,1.936.881c.626.271,1.391.606,2.278.922.88.333,1.868.739,2.981,1.1s2.289.754,3.571,1.138,2.614.8,4.034,1.158,2.851.758,4.343,1.084c1.478.359,2.992.722,4.5,1.04,3.041.632,6.08,1.191,8.947,1.7,1.419.271,2.824.471,4.124.671,1.316.2,2.571.377,3.718.548,2.29.323,4.227.524,5.562.683C5460.72,3203.814,5461.492,3203.864,5461.492,3203.864Z" fill="#36a2ad"/>
        <path id="Path_415" data-name="Path 415" d="M5520,3252.075s-.391.2-1.147.513c-.363.191-.839.353-1.386.567s-1.194.452-1.92.67c-1.443.509-3.22.962-5.282,1.494-2.082.421-4.406.967-7,1.291-2.561.466-5.386.648-8.352.929-1.494.12-3.039.124-4.6.206-1.565.036-3.163.156-4.8.1q-2.446-.054-4.954-.084l-1.266-.016-1.27-.09c-.834-.064-1.69-.1-2.541-.165-1.71-.114-3.435-.242-5.162-.352-1.721-.215-3.443-.431-5.16-.633-1.738-.211-3.476-.364-5.178-.614-1.714-.292-3.408-.573-5.107-.856s-3.366-.571-5.015-.838c-1.645-.356-3.27-.7-4.865-1.043s-3.161-.686-4.694-1.016c-.776-.167-1.533-.328-2.273-.492-.76-.171-1.487-.37-2.2-.554-2.9-.762-5.637-1.466-8.17-2.123-2.532-.628-4.813-1.353-6.844-1.973s-3.794-1.149-5.258-1.6l-4.6-1.369s1.646.549,4.539,1.536c1.45.468,3.208,1.061,5.218,1.728s4.286,1.459,6.83,2.113c2.52.689,5.246,1.454,8.141,2.247.71.218,1.447.411,2.188.62.746.162,1.506.336,2.282.5,1.536.357,3.1.706,4.691,1.062s3.227.715,4.871,1.071c1.653.28,3.34.578,5.034.862s3.4.593,5.12.881c1.706.266,3.447.448,5.185.658s3.467.4,5.188.611c1.749.089,3.471.2,5.2.325.846.046,1.707.1,2.553.148l1.269.09,1.283.011c1.663.009,3.331.034,4.967.05,1.65.042,3.256-.052,4.835-.138,1.559-.095,3.113-.128,4.6-.277,3-.333,5.823-.577,8.4-1.059,2.582-.367,4.919-.993,7-1.456,2.047-.588,3.823-1.085,5.255-1.634.738-.238,1.364-.5,1.9-.726.546-.243,1.018-.419,1.381-.61C5519.613,3252.288,5520,3252.075,5520,3252.075Z" fill="#36a2ad"/>
        <path id="Path_416" data-name="Path 416" d="M5469.113,3245.079l-.687.192c-.44.123-1.114.28-1.959.488-.852.18-1.888.41-3.081.61-1.181.227-2.541.414-4.024.638-.724.1-1.513.155-2.3.257-.811.079-1.625.188-2.475.232s-1.723.112-2.621.17-1.812.061-2.738.1c-1.856.088-3.786.036-5.741,0-.981.008-1.96-.059-2.945-.124s-1.978-.115-2.973-.179c-1.965-.175-3.949-.378-5.891-.575-1.927-.309-3.834-.591-5.68-.876-1.82-.364-3.586-.717-5.254-1.052-.857-.145-1.643-.371-2.428-.568s-1.531-.387-2.258-.583c-1.44-.369-2.784-.661-3.925-1.039-1.171-.355-2.174-.653-3.015-.907-1.673-.5-2.614-.8-2.614-.8s.926.351,2.579.942c.81.291,1.81.636,2.968,1.053,1.12.444,2.443.786,3.894,1.2.715.216,1.456.426,2.248.647.772.214,1.578.449,2.416.631,1.663.38,3.444.787,5.27,1.167,1.848.3,3.764.61,5.705.926,1.95.226,3.947.455,5.926.642,1,.062,1.993.11,2.985.159s1.993.11,2.985.1c1.957,0,3.9.05,5.768-.069.934-.056,1.857-.046,2.752-.134s1.781-.172,2.634-.246,1.684-.19,2.478-.308,1.584-.193,2.328-.326c1.475-.25,2.819-.494,4-.778,1.193-.244,2.225-.55,3.054-.751C5468.186,3245.428,5469.113,3245.079,5469.113,3245.079Z" fill="#36a2ad"/>
        <path id="Path_417" data-name="Path 417" d="M5535.73,3240.4s-.479.3-1.341.731c-.456.232-.983.5-1.609.764-.619.292-1.34.569-2.113.886s-1.633.637-2.545.936c-.9.328-1.881.6-2.877.909s-2.066.579-3.115.843c-1.077.244-2.151.545-3.267.753-1.088.186-2.186.461-3.275.6-1.1.161-2.147.393-3.2.494-1.031.141-2.046.278-3,.413-.958.074-1.853.163-2.7.25-.827.084-1.606.155-2.289.2s-1.272.09-1.765.124c-.984.082-1.541.119-1.541.119s.556.024,1.54.044c.5.012,1.085.008,1.788.02.688.016,1.456.009,2.3-.051.854-.031,1.761-.076,2.726-.124.973-.078,1.989-.172,3.043-.273s2.135-.271,3.232-.445c1.1-.132,2.205-.395,3.325-.589,1.107-.221,2.2-.526,3.285-.772,1.061-.283,2.116-.607,3.128-.92a52.022,52.022,0,0,0,5.39-2.1,39.048,39.048,0,0,0,3.62-1.933C5535.294,3240.741,5535.73,3240.4,5535.73,3240.4Z" fill="#36a2ad"/>
        <path id="Path_418" data-name="Path 418" d="M5560,3253.179l-.595.376c-.382.225-.938.514-1.613.853-.344.154-.711.333-1.1.484-.413.177-.826.335-1.275.49-.424.179-.9.283-1.374.445-.463.145-.95.266-1.437.388-.479.088-.962.223-1.46.3-.478.09-.961.164-1.432.239-.459.053-.915.12-1.331.164-.437.033-.843.071-1.221.1a17.416,17.416,0,0,1-1.838.112c-.436.033-.695.061-.695.061s.247.035.684.107c.455.035,1.089.169,1.848.194.387,0,.816.038,1.256.019s.9-.028,1.382-.045c.487-.061.976-.111,1.478-.177.51-.082,1.017-.2,1.518-.306a21.078,21.078,0,0,0,2.885-.941c.451-.187.865-.4,1.266-.606s.741-.43,1.074-.628a15.94,15.94,0,0,0,1.475-1.139A6.159,6.159,0,0,0,5560,3253.179Z" fill="#36a2ad"/>
        <path id="Path_419" data-name="Path 419" d="M5569.356,3258.652s-.1-.357-.308-.953c-.236-.616-.536-1.482-.983-2.5-.46-1-1-2.186-1.65-3.413s-1.417-2.5-2.206-3.746c-.426-.61-.834-1.222-1.271-1.812-.439-.575-.867-1.152-1.316-1.68s-.876-1.063-1.343-1.511c-.431-.444-.833-.91-1.261-1.279a17.972,17.972,0,0,0-2.037-1.716c-.525-.388-.826-.614-.826-.614l.717.72c.232.23.509.494.826.822.285.337.618.718.995,1.116s.734.863,1.146,1.343.8,1.025,1.223,1.556.807,1.126,1.235,1.7c.444.574.826,1.2,1.231,1.794.393.617.792,1.234,1.184,1.851.351.613.741,1.2,1.083,1.8.7,1.187,1.344,2.3,1.864,3.266s.961,1.78,1.237,2.354C5569.195,3258.327,5569.356,3258.652,5569.356,3258.652Z" fill="#36a2ad"/>
        <path id="Path_420" data-name="Path 420" d="M5529.094,3222.689s.293.3.814.84c.537.533,1.252,1.328,2.119,2.257s1.837,2.055,2.871,3.266c.525.593,1.033,1.252,1.567,1.876.524.655,1.037,1.327,1.565,2,.491.678,1.031,1.346,1.5,2.032s.978,1.344,1.392,2.016c.4.689.867,1.3,1.211,1.947.371.622.741,1.2,1.031,1.76s.554,1.092.8,1.541c.236.469.393.885.552,1.225.308.687.49,1.067.49,1.067s-.123-.4-.344-1.122c-.115-.353-.239-.793-.431-1.274-.186-.5-.4-1.046-.664-1.626-.254-.6-.589-1.215-.906-1.87s-.743-1.334-1.145-2.024-.88-1.385-1.343-2.089-.994-1.383-1.5-2.071c-1.062-1.353-2.142-2.668-3.25-3.856-1.056-1.189-2.149-2.22-3.067-3.121C5530.464,3223.715,5529.094,3222.689,5529.094,3222.689Z" fill="#36a2ad"/>
        <path id="Path_421" data-name="Path 421" d="M5496.524,3207.194s.525.345,1.405.943,2.126,1.5,3.589,2.587c.746.534,1.537,1.129,2.342,1.795.835.643,1.664,1.375,2.555,2.074.877.735,1.776,1.508,2.667,2.312.869.811,1.807,1.618,2.656,2.478.865.857,1.746,1.692,2.558,2.565.406.436.822.869,1.227,1.3.386.428.76.873,1.151,1.3.358.432.744.859,1.1,1.265.359.435.683.847,1.018,1.26.645.815,1.284,1.57,1.8,2.333.521.742,1.023,1.42,1.465,2.008.4.629.749,1.185,1.034,1.626.59.888.934,1.414.934,1.414s-.285-.542-.792-1.485c-.26-.475-.569-1.042-.916-1.7-.406-.642-.842-1.353-1.355-2.129-.474-.787-1.084-1.58-1.7-2.431-.314-.419-.646-.858-.962-1.3-.359-.435-.733-.863-1.091-1.313-.375-.43-.757-.887-1.131-1.332-.4-.434-.815-.883-1.231-1.317-.8-.9-1.672-1.774-2.547-2.626-.869-.871-1.813-1.66-2.713-2.478-.907-.8-1.826-1.538-2.717-2.281-.911-.712-1.786-1.4-2.64-2.007s-1.668-1.183-2.43-1.7c-1.53-1.041-2.857-1.813-3.776-2.343S5496.524,3207.194,5496.524,3207.194Z" fill="#36a2ad"/>
        <path id="Path_422" data-name="Path 422" d="M5518.363,3226.244s-3.234-1.589-8.079-3.989c-2.412-1.2-5.223-2.635-8.229-4.155s-6.206-3.191-9.376-4.9c-1.586-.846-3.172-1.693-4.72-2.55-.772-.423-1.548-.86-2.3-1.285s-1.5-.859-2.216-1.281c-1.467-.836-2.868-1.663-4.191-2.464-1.348-.78-2.551-1.586-3.69-2.306s-2.162-1.415-3.053-2.057c-.9-.621-1.69-1.159-2.3-1.671l-1.953-1.517s.677.6,1.857,1.647c.583.534,1.338,1.125,2.207,1.787.436.338.912.694,1.4,1.078.49.366,1.035.72,1.587,1.1,1.1.774,2.307,1.623,3.636,2.44,1.288.84,2.666,1.733,4.132,2.567.73.435,1.48.88,2.228,1.321s1.517.869,2.292,1.3c1.537.878,3.115,1.741,4.7,2.6,3.193,1.687,6.4,3.3,9.437,4.809,3.032,1.481,5.906,2.8,8.35,3.942,2.467,1.121,4.545,2.009,5.981,2.631S5518.363,3226.244,5518.363,3226.244Z" fill="#36a2ad"/>
        <path id="Path_423" data-name="Path 423" d="M5405.118,3215.179s-.29-.231-.8-.622c-.5-.365-1.227-.932-2.142-1.553-.9-.61-1.96-1.338-3.114-2.068-.591-.353-1.189-.735-1.812-1.1-.628-.342-1.253-.717-1.9-1.085-1.266-.7-2.572-1.372-3.83-1.94-.618-.3-1.229-.547-1.807-.788s-1.166-.444-1.662-.646c-.518-.2-1.008-.314-1.443-.443a8.5,8.5,0,0,0-1.121-.28c-.63-.122-.992-.2-.992-.2l.941.344a9.054,9.054,0,0,1,1.065.414c.41.183.878.365,1.371.6s1.035.451,1.594.755c.553.276,1.139.572,1.745.877,1.2.631,2.49,1.308,3.76,2.02,1.273.683,2.532,1.415,3.728,2.09,1.181.662,2.294,1.288,3.23,1.842.954.535,1.761.978,2.308,1.3C5404.8,3215,5405.118,3215.179,5405.118,3215.179Z" fill="#36a2ad"/>
      </g>
      <g id="Group_212" data-name="Group 212">
        <path id="Path_424" data-name="Path 424" d="M5384.406,3211.092c-5.632-23.943,48.63-20,79.781-13.831a192.739,192.739,0,0,1,28.075,8.29l.039.035s-61.855-14.317-88.869-7.408c-17.217,4.406-.471,46.256,86.46,54.206,82.78,6.6,88.844,2.812,57.562-19.04-.956-.668-1.855-1.336-2.724-2,18.555,11.7,36.083,26.059,48.722,42.8l-4.851,4.194s-14.311-8.761-88.5-11.029C5435.806,3265.359,5391.7,3240.95,5384.406,3211.092Z" fill="#abe7f4" opacity="0.7" style="mix-blend-mode: multiply;isolation: isolate"/>
      </g>
      <g id="Group_213" data-name="Group 213">
        <path id="Path_425" data-name="Path 425" d="M5528.062,3264.915c36.195,2.44,58.665,9.851,58.84,6.445.078-1.726-3.352-7.3-6.773-12.367a141.141,141.141,0,0,1,13.323,15.152l-4.851,4.194s-14.311-8.761-88.5-11.029c-51.971-1.586-90.749-17.821-107.551-39.777C5423.478,3257.482,5494.786,3262.65,5528.062,3264.915Z" fill="#979d9e" opacity="0.7" style="mix-blend-mode: multiply;isolation: isolate"/>
      </g>
      <path id="Path_426" data-name="Path 426" d="M5507.139,3188.384s49.237,9.892,81.064,59.693C5578.226,3225.426,5551.739,3196.1,5507.139,3188.384Z" fill="#fff"/>
      <path id="Path_427" data-name="Path 427" d="M5554.316,3247.35s-66.326-52.716-152.192-43.342C5420.918,3196.223,5506.95,3196.453,5554.316,3247.35Z" fill="#fff"/>
    </g>
    <path id="Path_428" data-name="Path 428" d="M5660.954,3293.71a13.928,13.928,0,0,0,2.111-7.985l-1.379,2.123a48.66,48.66,0,0,0-2.714-8.162l-.464,2.952c.612-3.809-6.652-9.971-8.937-11.869-14.857-12.407-33.282-12.356-51.321-8.24a4.982,4.982,0,0,1,1.122,2c-3.629-.454-8.244,2.307-8.244,2.307,2.587.434,3.011.894,3.011.894s-10.833,5.275-9.042,20.686c1.815,15.437,2.543,34.531,31.852,47.062,13.866,5.352,19.7,7.489,32.675-5.359C5649.624,3330.12,5665.677,3304.545,5660.954,3293.71Z" fill="#a57324"/>
    <g id="Group_215" data-name="Group 215" opacity="0.5" style="mix-blend-mode: multiply;isolation: isolate">
      <path id="Path_429" data-name="Path 429" d="M5594.139,3267.731c-22.308,15.867,7.257,41.611,3.162,28.908-4.073-12.709-4.962-19.645-2.139-20.953,2.815-1.338,8.16-4.157,8.16-4.157s-1.448-.4-4.973.325c7.215-4.677,20.345-4.377,20.345-4.377l-5.466-2.445c9.6-.832,24.749,4.781,22.489,1.421-5.46-6.189-26.1-5.74-26.1-5.74l.121-.166c14.2-1.587,28.122.455,39.838,10.222,2.285,1.9,9.549,8.06,8.937,11.869l.464-2.952a48.66,48.66,0,0,1,2.714,8.162l1.379-2.123a13.928,13.928,0,0,1-2.111,7.985c4.723,10.835-11.33,36.41-11.33,36.41-12.973,12.848-18.809,10.711-32.675,5.359-29.309-12.531-30.037-31.625-31.852-47.062C5583.306,3273.006,5594.139,3267.731,5594.139,3267.731Z" fill="#a57324"/>
    </g>
    <g id="Group_216" data-name="Group 216">
      <path id="Path_430" data-name="Path 430" d="M5649.747,3275.573c-2.617-2.236-9.83-7.267-9.83-7.267l2.475-.441c-.68-.938-1.822-2.311-2.825-3.454,16.1,7.592,18.941,18.227,18.941,18.227l.464-2.952a48.66,48.66,0,0,1,2.714,8.162l1.379-2.123a13.928,13.928,0,0,1-2.111,7.985,11.916,11.916,0,0,1,.455,1.357,119.506,119.506,0,0,0-13.937-19.227A11.473,11.473,0,0,1,5649.747,3275.573Z" fill="#95734d" opacity="0.5" style="mix-blend-mode: multiply;isolation: isolate"/>
      <path id="Path_431" data-name="Path 431" d="M5612.5,3311.369c-16.96-23.144-13.643-33.289-13.643-33.289l6.555.879a12.689,12.689,0,0,1-2.65-2.849,38.3,38.3,0,0,1,4.8-1.833l-2.065-1.65a29.881,29.881,0,0,1,19.864,1.12,22.047,22.047,0,0,0-4.064-3.434c22.272,4.408,27.813,15.829,27.813,15.829a14.837,14.837,0,0,0-.958-4.808c5.171,4.372,10.685,14.643,13.444,20.2-.926,6.863-4.645,15.121-7.689,20.991C5643.029,3328.045,5625.4,3328.959,5612.5,3311.369Z" fill="#95734d" opacity="0.5" style="mix-blend-mode: multiply;isolation: isolate"/>
    </g>
    <g id="Group_217" data-name="Group 217">
      <path id="Path_432" data-name="Path 432" d="M5661.69,3287.8c.027-.007.039-.025.062-.049-.05.089-.066.094-.066.094A.055.055,0,0,0,5661.69,3287.8Z" fill="none"/>
      <path id="Path_433" data-name="Path 433" d="M5663.065,3285.725a12.454,12.454,0,0,1-.039,1.348c-.414.218-.827.437-1.274.681C5661.871,3287.6,5662.165,3287.121,5663.065,3285.725Z" fill="#a57324"/>
      <path id="Path_434" data-name="Path 434" d="M5648.2,3318.4c-4.2-17.485,6.311-26.573,13.494-30.6a.055.055,0,0,1,0,.045s.016,0,.066-.094c.447-.244.86-.463,1.274-.681a13.587,13.587,0,0,1-2.072,6.637c4.723,10.835-11.33,36.41-11.33,36.41a50.44,50.44,0,0,1-7.289,6.153C5639.808,3330.119,5640.542,3323.191,5648.2,3318.4Z" fill="#a57324" style="mix-blend-mode: multiply;isolation: isolate"/>
    </g>
    <path id="Path_435" data-name="Path 435" d="M5593.841,3397.544s-15.907,25.251-26.427,39.953a264.771,264.771,0,0,0-19.652,32.773c2.114,1.187.207,2.063-1.594,3.281,2.038,1.864,1.594,2.093-.566,3.394l-.852,15.023s-2.2-15.787-2.366-18.888c-.152-3.088,2.332-7.363,11.746-21.738,9.381-14.37,36.842-56.586,36.842-56.586Z" fill="#282727"/>
    <path id="Path_436" data-name="Path 436" d="M5626.085,3339.647a6.037,6.037,0,1,0,6.155-5.717A5.947,5.947,0,0,0,5626.085,3339.647Z" fill="#694420"/>
    <g id="Group_218" data-name="Group 218" opacity="0.5" style="mix-blend-mode: multiply;isolation: isolate">
      <path id="Path_437" data-name="Path 437" d="M5626.085,3339.647a6.047,6.047,0,0,1,12-.658c-.443-.055-.861.212-1.107,1.068-.8,2.729-4.142,4.305-6.242,3.111-2.13-1.2-1.967-4.378-3.137-4.051-.745.209-1.545,2.543.106,4.633A5.776,5.776,0,0,1,5626.085,3339.647Z" fill="#694420"/>
    </g>
    <path id="Path_438" data-name="Path 438" d="M5612.951,3332.116c2.137,2.979,5.92,3.925,8.443,2.1,2.539-1.808,2.836-5.708.7-8.686-2.162-2.989-5.94-3.919-8.458-2.1C5611.113,3325.237,5610.81,3329.139,5612.951,3332.116Z" fill="#694420"/>
    <path id="Path_439" data-name="Path 439" d="M5622.075,3330.615s-2.7,3.83-7.367-.8c-1.418-1.738-.727,4.182,3.736,4.328C5622.927,3334.3,5623.412,3329.4,5622.075,3330.615Z" fill="#694420" opacity="0.5" style="mix-blend-mode: screen;isolation: isolate"/>
    <g id="Group_219" data-name="Group 219" opacity="0.5" style="mix-blend-mode: multiply;isolation: isolate">
      <path id="Path_440" data-name="Path 440" d="M5613.635,3323.435c2.518-1.819,6.3-.889,8.458,2.1a7.446,7.446,0,0,1,1.237,2.784c-.654-.23-1.427-.075-2.123,1.055-1.8,2.908-4.954,1.387-6.141-2.48-.591-1.883-2.319-1.712-3.413-.3A5.082,5.082,0,0,1,5613.635,3323.435Z" fill="#694420"/>
    </g>
    <path id="Path_441" data-name="Path 441" d="M5621.166,3319.781s2.351,8.026-1.735,9.289c-4.116,1.256-3.294-6.99-4.217-14.628-.911-7.657-2.557-24.683-2.557-24.683s-4.712,32.329-6.754,46.721c-2.054,14.41-10.243,54.454-12.062,61.064-.827,3.082-4.826-.907-3.026-7.169,1.775-6.272,9.135-48.9,14.519-74.8s5.038-29.572,4.552-32.092,2.071-3.682,3.656-4.349,4.666,2.464,4.162,4.594-1.185,2.114-1.159,4.54C5616.554,3290.7,5619.3,3313.862,5621.166,3319.781Z" fill="#282727"/>
    <path id="Path_442" data-name="Path 442" d="M5594.015,3315.33a4.915,4.915,0,0,0,6.238,3.034c2.752-.77,4.44-3.382,3.754-5.832a5.223,5.223,0,0,0-9.992,2.8Z" fill="#694420"/>
    <path id="Path_443" data-name="Path 443" d="M5602.373,3314.651a4.483,4.483,0,0,1-6.063,1.252c-1.867-1.049-.135,2.74,3.209,1.8S5603.532,3313.54,5602.373,3314.651Z" fill="#694420" opacity="0.5" style="mix-blend-mode: screen;isolation: isolate"/>
    <g id="Group_220" data-name="Group 220" opacity="0.5" style="mix-blend-mode: multiply;isolation: isolate">
      <path id="Path_444" data-name="Path 444" d="M5597.767,3309.485a4.934,4.934,0,0,1,6.24,3.047,4.043,4.043,0,0,1,.124,1.494c-.753-1.095-1.763-1.955-2.667-.515-1.659,2.675-3.86,2.342-5.808,1a1.413,1.413,0,0,0-1.792-.034A5.09,5.09,0,0,1,5597.767,3309.485Z" fill="#694420"/>
    </g>
    <path id="Path_445" data-name="Path 445" d="M5598.493,3306.891s3.67,3.93,1.019,6.721c-2.625,2.8-6.479-3.65-11.677-9.377s-18.24-22.4-18.24-22.4-2.652.9-3.135,4.634c-.5,3.731-18.568,68.212-32.431,95.579-2.456,3.2-.162,6.16-3.783,5.527-3.512-.62-2.639-2.751-.633-6.027,2.017-3.3,23.194-64.36,26.871-76.3,6.153-19.968,8.92-25.774,7.469-28.725s3.111-4.641,4.728-2.585S5596.935,3304.179,5598.493,3306.891Z" fill="#282727"/>
    <path id="Path_446" data-name="Path 446" d="M5528.183,3384.277s-35.114,51.842-48.021,70.523c-7.791,11.739-8.2,11.662-6.1,29.406,1.551-10.171,1.168-10.837,2.8-11.857s-.907-1.853-.907-1.853c2.639-1.511,2.153-1.181.4-5.455,9.526-12.984,55.523-78.562,55.523-78.562Z" fill="#282727"/>
    <g id="Group_221" data-name="Group 221">
      <path id="Path_447" data-name="Path 447" d="M5609.5,3298.969c.617.2-10.134,59.885-13.39,78.209-3.535,18.818-3.376,10.372-2.491.075.012-.227.031-.426.031-.634,2.327-12.111,5.553-29.861,8.622-45.67C5604.833,3318.728,5609.076,3298.821,5609.5,3298.969Z" fill="#282727" style="mix-blend-mode: screen;isolation: isolate"/>
    </g>
    <g id="Group_222" data-name="Group 222">
      <path id="Path_448" data-name="Path 448" d="M5554.13,3451.342c5.2-7.943,15.9-24.39,24.438-37.528,2.581-3.5,9.818-13.183,10.412-13.231.741-.06-20.3,34.378-32.508,50.649-4.505,6.132-12.266,18.534-10.475,19.205s.791,1.234-.711,1.655-2.1,1.905-.845,2.713c1.256.823-.193,1.376-.193,1.376l.231,13.829c-.6-4.316-1.964-14.5-2.1-16.93C5542.232,3469.992,5544.716,3465.717,5554.13,3451.342Z" fill="#282727" style="mix-blend-mode: screen;isolation: isolate"/>
    </g>
    <g id="Group_223" data-name="Group 223">
      <path id="Path_449" data-name="Path 449" d="M5562.7,3288.886c1.309-.887-12.409,46.4-22.96,75.633-6.362,15.4-8.639,18.406-6.936,9.069,6.554-17.646,20.733-58.786,23.683-68.34.12-.421.26-.831.384-1.236C5559.473,3296.468,5562.067,3289.3,5562.7,3288.886Z" fill="#282727" style="mix-blend-mode: screen;isolation: isolate"/>
    </g>
    <g id="Group_224" data-name="Group 224">
      <path id="Path_450" data-name="Path 450" d="M5525.828,3390.77c1.861.608-29.878,43.026-35.956,52.286-6.061,9.253-15.411,21.191-14.351,23.076a2.052,2.052,0,0,1-.642,2.9l.332,2.445s-.908.893-1.772,7.149c-1.281-12.3-.148-13.47,6.723-23.823,9.3-13.454,30.109-44.1,41.019-60.206C5523.585,3392.185,5525.385,3390.613,5525.828,3390.77Z" fill="#282727" style="mix-blend-mode: screen;isolation: isolate"/>
    </g>
    <path id="Path_451" data-name="Path 451" d="M5605.334,3315.575s-9.372,49.874-11.669,63.892C5593.431,3384.194,5604.5,3326.185,5605.334,3315.575Z" fill="#d8d8d8"/>
    <path id="Path_452" data-name="Path 452" d="M5582.705,3408.929s-29.128,42.877-36.393,55.007C5544.971,3466.835,5579.041,3417.319,5582.705,3408.929Z" fill="#d8d8d8"/>
    <path id="Path_453" data-name="Path 453" d="M5557.934,3301.888s-18.444,54.907-22.883,67.476C5534.193,3373.389,5552.5,3325.1,5557.934,3301.888Z" fill="#d8d8d8"/>
    <path id="Path_454" data-name="Path 454" d="M5521.251,3395.466s-37.218,53.647-41.736,60.91C5477.765,3459.285,5516.34,3404.96,5521.251,3395.466Z" fill="#d8d8d8"/>
    <g id="Group_241" data-name="Group 241">
      <path id="Path_455" data-name="Path 455" d="M5673.577,3287.9c-21.811,1.578-26.607,19.34-21.518,33.012-7.027.289-9.152,5.2-3.1,11.348s25.633,11.824,27.932,10.691a29.711,29.711,0,0,0,5.41-3.951l2.1,3.807,3.77-3.772,3.252,7.892,6.181-3.409,3.435,10.781s2.463-.9,8.921-3.342c9.938,7.074,50.172,36.9,69.169,52.351,19,15.43,24.788,26.4,24.788,26.4a16.74,16.74,0,0,0-4.423-12.82c-5.471-6.024-49.327-52.59-89.2-77.2.276-4-.754-4.659-4.554-4.649.675-5.71,1.19-7.368-2.892-6.836C5702.853,3328.2,5705.9,3285.561,5673.577,3287.9Z" fill="#9593a3"/>
      <path id="Path_456" data-name="Path 456" d="M5674.009,3289.386s-13.246.086-18.839,12.874C5654.816,3298.722,5661.643,3289.226,5674.009,3289.386Z" fill="#fff"/>
      <g id="Group_225" data-name="Group 225">
        <path id="Path_457" data-name="Path 457" d="M5652.059,3320.916c-5.089-13.672-.293-31.434,21.518-33.012a28.063,28.063,0,0,1,10.676,1.109c-4.447-.67-19.274-1.969-27.861,8.393-10.192,12.279-1.415,26.389-1.415,26.389s-4.123-1.992-6.655.187,11.258,15.507,25.369,17.228c4.642.168,9.9-5.088,9.9-5.088s-.658,5.856,1.806,3.473c2.489-2.358,3.74-3.139,5.464.786,1.731,3.91,2.616,4.094,7.227,1.11,1.268,3,3.106,11.1,9.052,8.375,5.967-2.709,8.394,1.5,36.483,22.981,28.118,21.49,51.6,41.472,55.737,47.291,0,0-8.641-12.944-29.928-31.034-21.272-18.078-54.214-46.873-62.125-47.181,1.312-4.286,1.47-5.725-2.716-5.667a23.318,23.318,0,0,1,1.545-6.741c.211,1.084-.063,2.854-.386,5.525,3.8-.01,4.83.653,4.554,4.649,39.873,24.612,83.729,71.178,89.2,77.2a16.74,16.74,0,0,1,4.423,12.82s-5.785-10.969-24.788-26.4c-19-15.45-59.231-45.277-69.169-52.351-6.458,2.444-8.921,3.342-8.921,3.342l-3.435-10.781-6.181,3.409-3.252-7.892-3.77,3.772-2.1-3.807a29.711,29.711,0,0,1-5.41,3.951c-2.3,1.133-21.887-4.562-27.932-10.691S5645.032,3321.205,5652.059,3320.916Z" fill="#9593a3" style="mix-blend-mode: multiply;isolation: isolate"/>
      </g>
      <g id="Group_226" data-name="Group 226" style="mix-blend-mode: multiply;isolation: isolate">
        <path id="Path_458" data-name="Path 458" d="M5696.994,3327.2s-5.934-1.412-7.158-4.024c-3.521,17.211-17.993,11.184-17.993,11.184a12.83,12.83,0,0,1,1.513,3.645,31.242,31.242,0,0,0-15.063-11.652,4.394,4.394,0,0,1,4.88.355c-5.9-7.937-7.476-21.019.116-26.828s19.244-1.944,24.667,10.789c1.11-11.414,4.323-14.3,6.3-14.974,10.09,11.751,8.6,32.506,8.6,32.506a3.488,3.488,0,0,1,.406-.038c-4.1.822-8.27.579-10.783-.439A6.485,6.485,0,0,0,5696.994,3327.2Z" fill="#9593a3"/>
      </g>
      <g id="Group_231" data-name="Group 231">
        <path id="Path_459" data-name="Path 459" d="M5661.211,3320.611c3.171,9.8,11.466,15.923,18.516,13.654,7.052-2.286,10.215-12.094,7.054-21.9-3.18-9.828-11.455-15.941-18.507-13.657S5658.061,3310.788,5661.211,3320.611Z" fill="#fff"/>
        <g id="Group_228" data-name="Group 228">
          <path id="Path_460" data-name="Path 460" d="M5675.152,3317.819c.763,6.156-1.576,11.22-5.232,11.309s-7.233-4.833-8-10.972c-.761-6.171,1.581-11.219,5.237-11.308S5674.385,3311.668,5675.152,3317.819Z" fill="#715ab3"/>
          <path id="Path_461" data-name="Path 461" d="M5675.152,3317.819c.763,6.156-1.576,11.22-5.232,11.309s-7.233-4.833-8-10.972c-.761-6.171,1.581-11.219,5.237-11.308S5674.385,3311.668,5675.152,3317.819Z" fill="#c8a200"/>
          <path id="Path_462" data-name="Path 462" d="M5673.647,3318.272c.573,4.693-1.225,8.567-4.011,8.618-2.788.069-5.516-3.679-6.1-8.371s1.212-8.549,4-8.618S5673.062,3313.58,5673.647,3318.272Z" fill="#e3bf4e"/>
          <path id="Path_463" data-name="Path 463" d="M5671.283,3318.636c.374,2.968-.761,5.424-2.534,5.461s-3.5-2.329-3.877-5.313.773-5.442,2.546-5.479S5670.927,3315.648,5671.283,3318.636Z" fill="#7d7000"/>
          <g id="Group_227" data-name="Group 227" style="mix-blend-mode: multiply;isolation: isolate">
            <path id="Path_464" data-name="Path 464" d="M5661.807,3316.376a15.813,15.813,0,0,0,.111,1.78c.769,6.139,4.341,11.06,8,10.972s6-5.153,5.232-11.309a15.794,15.794,0,0,0-.3-1.667C5671.283,3319.585,5665.593,3320.513,5661.807,3316.376Z" fill="#c8a200"/>
          </g>
          <path id="Path_465" data-name="Path 465" d="M5668.344,3314.753c.111,2.464-1,4.331-2.477,4.2s-2.779-2.237-2.874-4.7c-.126-2.456.982-4.326,2.462-4.19S5668.233,3312.29,5668.344,3314.753Z" fill="#fff"/>
          <path id="Path_466" data-name="Path 466" d="M5667.6,3321.57c.033.925-.383,1.606-.928,1.564s-1.035-.824-1.065-1.736.364-1.615.912-1.56S5667.55,3320.662,5667.6,3321.57Z" fill="#fff"/>
        </g>
        <g id="Group_229" data-name="Group 229" style="mix-blend-mode: multiply;isolation: isolate">
          <path id="Path_467" data-name="Path 467" d="M5665.4,3300.2a29.082,29.082,0,0,0-3.1,15.328c.916,11.767,17.926,14.56,19.1,1.777.748-8.181-3.769-14.887-7.111-18.659,5.231,1.462,10.209,6.614,12.495,13.723,3.161,9.8,0,19.612-7.054,21.9-7.05,2.269-15.345-3.855-18.516-13.654C5658.523,3312.233,5660.419,3303.893,5665.4,3300.2Z" fill="#d8d8d8"/>
        </g>
        <path id="Path_468" data-name="Path 468" d="M5678.53,3327.592c5.336-1.552,8.046-5.725,9.426-9.228.522,7.528-2.622,14.077-8.229,15.9-5.992,1.915-12.859-2.19-16.735-9.462C5666.657,3327.828,5671.8,3329.536,5678.53,3327.592Z" fill="#282727"/>
        <g id="Group_230" data-name="Group 230">
          <path id="Path_469" data-name="Path 469" d="M5668.274,3298.71c7.052-2.284,15.327,3.829,18.507,13.657a25.925,25.925,0,0,1,1.175,6,1.636,1.636,0,0,0-.085.171c-3.988-2.564-14.984-9.672-24.659-16.18A10.334,10.334,0,0,1,5668.274,3298.71Z" fill="#282727"/>
        </g>
        <path id="Path_470" data-name="Path 470" d="M5672.706,3336.972a14.212,14.212,0,0,0-1.279-2.195,24.576,24.576,0,0,0-1.585-2.064,23.632,23.632,0,0,0-2.151-2.1,16.94,16.94,0,0,0-2.423-1.77,9.062,9.062,0,0,0-1.224-.653,9.223,9.223,0,0,0-1.123-.516,11.162,11.162,0,0,0-1.756-.547c-.448-.112-.685-.15-.685-.15s.225.1.623.3c.2.091.45.184.728.329s.564.319.893.479a9.77,9.77,0,0,1,1.034.616,12.779,12.779,0,0,1,1.127.738c.382.249.748.563,1.142.852.406.274.769.618,1.15.926.761.649,1.471,1.324,2.142,1.984.648.664,1.254,1.3,1.757,1.852C5672.086,3336.182,5672.706,3336.972,5672.706,3336.972Z"/>
        <path id="Path_471" data-name="Path 471" d="M5684.863,3325.136s-5.154,6.935-14.649,3.82c-4.155-1.051,1.44,6.157,9.071,3.873S5686.853,3322.591,5684.863,3325.136Z" fill="#282727" style="mix-blend-mode: screen;isolation: isolate"/>
        <path id="Path_472" data-name="Path 472" d="M5688.723,3311.409s-2.452,3.21-7.944-.284-16.763-9.351-21.42-16.228c-1.139-1.463.4,3.659,1.469,5.247s16.27,11.684,22.384,15.537C5689.934,3320.614,5690.388,3316.612,5688.723,3311.409Z"/>
        <path id="Path_473" data-name="Path 473" d="M5684.259,3311.114s-10.524-5.738-16.016-9.455C5665.437,3299.015,5679.643,3295.825,5684.259,3311.114Z" fill="#282727" style="mix-blend-mode: screen;isolation: isolate"/>
        <path id="Path_474" data-name="Path 474" d="M5681.188,3307.462a13.666,13.666,0,0,0-6.063-4.539C5672.99,3302.616,5678.324,3300.5,5681.188,3307.462Z" fill="#d8d8d8"/>
      </g>
      <g id="Group_237" data-name="Group 237">
        <path id="Path_475" data-name="Path 475" d="M5691.008,3314.465c2.049,8.6,7.037,14.758,11.143,13.774s5.749-8.737,3.7-17.322-7.037-14.758-11.143-13.774C5690.615,3298.112,5688.938,3305.871,5691.008,3314.465Z" fill="#fff"/>
        <g id="Group_233" data-name="Group 233">
          <path id="Path_476" data-name="Path 476" d="M5701.278,3312.14c.832,4.666-.757,8.644-3.548,8.844-2.8.223-5.728-3.382-6.567-8.076-.816-4.671.777-8.635,3.564-8.851S5700.459,3307.456,5701.278,3312.14Z" fill="#715ab3"/>
          <path id="Path_477" data-name="Path 477" d="M5701.278,3312.14c.832,4.666-.757,8.644-3.548,8.844-2.8.223-5.728-3.382-6.567-8.076-.816-4.671.777-8.635,3.564-8.851S5700.459,3307.456,5701.278,3312.14Z" fill="#c8a200"/>
          <path id="Path_478" data-name="Path 478" d="M5700.147,3312.546c.628,3.563-.59,6.592-2.726,6.759-2.122.148-4.36-2.593-4.992-6.172s.57-6.6,2.71-6.758C5697.263,3306.211,5699.516,3308.967,5700.147,3312.546Z" fill="#e3bf4e"/>
          <path id="Path_479" data-name="Path 479" d="M5698.363,3312.909c.409,2.247-.373,4.188-1.723,4.285s-2.776-1.645-3.177-3.923c-.412-2.258.369-4.183,1.708-4.278S5697.946,3310.636,5698.363,3312.909Z" fill="#7d7000"/>
          <g id="Group_232" data-name="Group 232" style="mix-blend-mode: multiply;isolation: isolate">
            <path id="Path_480" data-name="Path 480" d="M5690.993,3311.558c.034.451.1.895.17,1.35.839,4.694,3.764,8.3,6.567,8.076,2.791-.2,4.38-4.178,3.548-8.844-.076-.439-.18-.87-.281-1.273C5698.4,3313.641,5694.076,3314.57,5690.993,3311.558Z" fill="#c8a200"/>
          </g>
          <path id="Path_481" data-name="Path 481" d="M5695.947,3310.07c.189,1.874-.589,3.354-1.728,3.316-1.146-.063-2.2-1.623-2.4-3.5-.168-1.883.589-3.356,1.744-3.323C5694.686,3306.621,5695.768,3308.19,5695.947,3310.07Z" fill="#fff"/>
          <path id="Path_482" data-name="Path 482" d="M5695.648,3315.3c.065.709-.209,1.26-.634,1.232-.431-.013-.818-.587-.9-1.3-.078-.69.216-1.232.637-1.217S5695.575,3314.61,5695.648,3315.3Z" fill="#fff"/>
        </g>
        <g id="Group_234" data-name="Group 234" style="mix-blend-mode: multiply;isolation: isolate">
          <path id="Path_483" data-name="Path 483" d="M5691.008,3314.465c-1.82-7.6-.735-14.535,2.4-16.72-5.068,20.347,10.439,27.838,11.421,16.5a23.273,23.273,0,0,0-1.968-11.1,30.084,30.084,0,0,1,2.992,7.771c2.05,8.585.393,16.353-3.7,17.322S5693.057,3323.064,5691.008,3314.465Z" fill="#d8d8d8"/>
        </g>
        <g id="Group_235" data-name="Group 235">
          <path id="Path_484" data-name="Path 484" d="M5703.219,3321.614a5.862,5.862,0,0,0,3.461-2.066c-.287,4.639-1.9,8.072-4.529,8.691-4.052.969-8.947-5.022-11.047-13.43C5694.225,3319.754,5699.44,3322.212,5703.219,3321.614Z" fill="#282727"/>
        </g>
        <g id="Group_236" data-name="Group 236">
          <path id="Path_485" data-name="Path 485" d="M5691.008,3314.465c-2.07-8.594-.393-16.353,3.7-17.322a4.548,4.548,0,0,1,3.335.626l-5.815,20.675A35.357,35.357,0,0,1,5691.008,3314.465Z" fill="#282727"/>
        </g>
        <path id="Path_486" data-name="Path 486" d="M5700.969,3289.142s-6.915,25.124-8.2,29.506c-.727,1.7-2.761-6.265-2.805-10.764,1.608,4.359,3.151,3.734,3.91.717S5700.969,3289.142,5700.969,3289.142Z"/>
        <path id="Path_487" data-name="Path 487" d="M5696.359,3298.269s-2.99,11.006-4.256,11.361C5690.353,3310.12,5689.9,3297.987,5696.359,3298.269Z" fill="#282727" style="mix-blend-mode: screen;isolation: isolate"/>
        <path id="Path_488" data-name="Path 488" d="M5695.2,3320.49a7.638,7.638,0,0,0,9.324,1.7c1.845-.933-.165,4.662-3.52,4.667C5697.186,3326.837,5691.915,3316.958,5695.2,3320.49Z" fill="#282727" style="mix-blend-mode: screen;isolation: isolate"/>
        <path id="Path_489" data-name="Path 489" d="M5693.821,3301.09a9.313,9.313,0,0,0-1.513,4.995C5692.305,3307.808,5690.671,3301.972,5693.821,3301.09Z" fill="#d8d8d8"/>
      </g>
      <path id="Path_490" data-name="Path 490" d="M5702.853,3328.2s-.134-.005-.39-.009-.606.007-1.027-.007c-.424.014-.9,0-1.431.013-.255,0-.521,0-.8,0-.27-.015-.545.019-.819-.009-.556-.021-1.111,0-1.629-.032s-1-.018-1.413-.065c-.838-.078-1.417-.078-1.417-.078a12.818,12.818,0,0,0,1.325.535,9.121,9.121,0,0,0,1.455.319,11.9,11.9,0,0,0,1.668.126,12.773,12.773,0,0,0,3.124-.353A8.615,8.615,0,0,0,5702.853,3328.2Z" fill="#282727"/>
      <path id="Path_491" data-name="Path 491" d="M5726.241,3355.638s34.452,27.244,64.734,54.556C5771.724,3389.309,5742.3,3365.111,5726.241,3355.638Z" fill="#fff"/>
      <path id="Path_492" data-name="Path 492" d="M5705.193,3329.451a8.617,8.617,0,0,1-.113.876c-.054.285-.1.579-.159.861-.174.555-.279,1.134-.434,1.7-.119.569-.382,1.117-.541,1.665l-.529,1.665-.144.4.391.113c.846.252,1.7.341,2.435.534a1.91,1.91,0,0,1,.471.195,1.041,1.041,0,0,1,.314.314,2.014,2.014,0,0,1,.169.457c.012.19.046.374.049.55a9.136,9.136,0,0,1-.109,1.2c-.049.4-.127.808-.213,1.2l-.545,2.456c.352-.767.669-1.538.967-2.336.123-.405.251-.8.355-1.211a8.437,8.437,0,0,0,.236-1.284c.012-.227-.022-.454-.034-.7a2.156,2.156,0,0,0-.227-.709,1.3,1.3,0,0,0-.533-.577,2.2,2.2,0,0,0-.668-.319c-.871-.26-1.67-.3-2.447-.516l.259.492.484-1.725a15.468,15.468,0,0,0,.4-1.744c.074-.585.174-1.177.228-1.771.008-.3,0-.61,0-.906A3.176,3.176,0,0,0,5705.193,3329.451Z" fill="#fff"/>
      <g id="Group_238" data-name="Group 238">
        <path id="Path_493" data-name="Path 493" d="M5688.417,3298.43s21.613-52.128,43.247-70.669c4.386-2.773,5.769-2.877,6.8-5.127,1.059-2.256-4.459-1.5-10.89,5.011C5717.509,3237.81,5686.162,3290.169,5688.417,3298.43Z"/>
        <path id="Path_494" data-name="Path 494" d="M5736.322,3223.622a15.362,15.362,0,0,0-2.51,1.371c-.4.243-.82.524-1.26.855s-.936.648-1.429,1.055-1.027.837-1.588,1.275c-.528.49-1.093.974-1.668,1.506-.6.508-1.148,1.108-1.766,1.712-.585.595-1.24,1.193-1.822,1.862-1.217,1.319-2.527,2.7-3.739,4.238-1.26,1.5-2.485,3.115-3.713,4.764-1.271,1.618-2.411,3.378-3.613,5.08s-2.248,3.524-3.354,5.26c-1.121,1.723-2.106,3.5-3.087,5.182s-1.917,3.343-2.732,4.937-1.617,3.095-2.319,4.5c-.762,1.371-1.315,2.683-1.866,3.833s-1.018,2.154-1.393,2.986c-.772,1.643-1.217,2.6-1.217,2.6l1.357-2.533c.409-.811.923-1.786,1.515-2.918.6-1.117,1.225-2.406,2.006-3.753.752-1.383,1.572-2.859,2.446-4.409.83-1.584,1.839-3.189,2.816-4.886.985-1.671,1.983-3.42,3.123-5.134,1.1-1.721,2.159-3.516,3.364-5.2s2.315-3.453,3.563-5.095c1.2-1.642,2.4-3.253,3.659-4.749,1.2-1.54,2.437-2.954,3.624-4.3.559-.692,1.177-1.294,1.749-1.9.587-.61,1.128-1.222,1.711-1.741.564-.528,1.1-1.052,1.619-1.538s1.035-.912,1.514-1.33.95-.784,1.378-1.112c.422-.355.831-.65,1.2-.915A17.557,17.557,0,0,1,5736.322,3223.622Z" fill="#fff"/>
      </g>
      <g id="Group_239" data-name="Group 239">
        <path id="Path_495" data-name="Path 495" d="M5680.209,3299.333s-4.106-11.647.459-41.026c4.564-29.364,8.414-38.828,10.5-39.619s1.554-4.206-.384-5.134-7.128,9.745-9.985,31.727-5.08,53.009-2.706,54.006C5680.482,3300.31,5680.209,3299.333,5680.209,3299.333Z"/>
        <path id="Path_496" data-name="Path 496" d="M5691.3,3217.121a1.3,1.3,0,0,0-.528.385,6.039,6.039,0,0,0-1.206,1.42c-.125.153-.247.335-.375.521-.1.19-.2.4-.321.608-.22.435-.474.891-.732,1.394a34.468,34.468,0,0,0-1.46,3.45,40.894,40.894,0,0,0-1.372,4.216,47.078,47.078,0,0,0-1.3,4.772q-.57,2.522-1.138,5.174c-.44,1.756-.662,3.571-.992,5.368-.3,1.79-.576,3.608-.867,5.379-.3,1.791-.466,3.545-.7,5.245-.431,3.4-.777,6.569-1.1,9.286-.607,5.457-.957,9.086-.957,9.086s.607-3.6,1.421-9.021c.383-2.706.864-5.868,1.341-9.268.224-1.681.41-3.455.735-5.21.307-1.778.6-3.566.918-5.361s.515-3.619.917-5.364q.558-2.631,1.1-5.162c.322-1.662.781-3.246,1.188-4.77a42.084,42.084,0,0,1,1.238-4.221c.236-.644.447-1.253.652-1.846a13.6,13.6,0,0,1,.641-1.636c.228-.509.458-.972.662-1.4.1-.224.209-.431.29-.617.125-.2.239-.365.351-.544.205-.323.406-.616.568-.885a4.091,4.091,0,0,1,.522-.577A1.493,1.493,0,0,1,5691.3,3217.121Z" fill="#fff"/>
      </g>
      <g id="Group_240" data-name="Group 240">
        <path id="Path_497" data-name="Path 497" d="M5665.427,3333.338c1.057,1.026,2.294,1.453,2.765.965s0-1.707-1.046-2.723-2.293-1.45-2.763-.962S5664.385,3332.324,5665.427,3333.338Z" fill="#fff"/>
        <path id="Path_498" data-name="Path 498" d="M5661.981,3330.043c.59.266,1.185.261,1.313-.026.111-.283-.278-.724-.877-1-.612-.243-1.207-.241-1.319.042C5660.971,3329.348,5661.359,3329.786,5661.981,3330.043Z" fill="#fff"/>
      </g>
    </g>
    <path id="Path_499" data-name="Path 499" d="M5551.377,3310.449s-30.134,38.5-37.028,73.366C5511.755,3369.34,5531.079,3328.45,5551.377,3310.449Z" fill="#fff"/>
    <path id="Path_500" data-name="Path 500" d="M5635.958,3339.542s1.678-26.464,4.08-34.649c2.351,22.353,8.153,84.545,8.713,100.746-2.993,2.085-.975,4.044,2.349,5.417,0,0,64.227,49.4,69.531,52.382a15.364,15.364,0,0,0-.1,3.933l2.993-1.672s-.059,10.35-.05,15.366a101.594,101.594,0,0,1,3.39-15.676s-33.278-26.667-46.083-36.932c-12.787-10.24-22.413-17.627-24.161-18.946-1.783-1.327.128-7.03-4.491-6.018.381-12.115-5.083-81.04-8.489-100.215,2.327-5.684-1.8-7.2-3.374-7.711s-2.825,1.28-2.457,2.841c.345,1.567-5.99,25.965-7.015,29.663s-2.038,13.19.452,14.082C5633.706,3343.052,5635.316,3341.591,5635.958,3339.542Z" fill="#282727"/>
    <g id="Group_242" data-name="Group 242">
      <path id="Path_501" data-name="Path 501" d="M5723.819,3464.7c-2,.558-2.452.686-2.038-.706s-1.455-2.325-13.083-11.2c-15.963-12.1-54.054-40.533-52.367-41.185,1.153-.427,7.484,3.785,11.374,6.5,3.724,2.907,8.155,6.43,13.073,10.354,12.805,10.265,46.083,36.932,46.083,36.932s-.112.344-.295.974l-2.1,4.06S5724.208,3467.779,5723.819,3464.7Z" fill="#282727" style="mix-blend-mode: screen;isolation: isolate"/>
      <path id="Path_502" data-name="Path 502" d="M5648.27,3385.214c-1.12-20.437-7.234-79.813-5.52-77.619s4.1,24.19,4.1,24.19l.27.058c1.657,16.667,3.238,36.37,4.177,51.175C5650.959,3391.157,5649.244,3399.875,5648.27,3385.214Z" fill="#282727" style="mix-blend-mode: screen;isolation: isolate"/>
    </g>
    <path id="Path_503" data-name="Path 503" d="M5645.26,3321.274s5.4,51.531,5.25,65.2C5650.092,3392.468,5644.851,3329.569,5645.26,3321.274Z" fill="#d8d8d8"/>
    <path id="Path_504" data-name="Path 504" d="M5663.05,3415.369l50.469,40.01S5673.683,3426.02,5663.05,3415.369Z" fill="#d8d8d8"/>
    <path id="Path_505" data-name="Path 505" d="M5637.011,3341.34a5.2,5.2,0,0,1-5.905,2.72c-1.783-.391.194,1.521,3.043.619C5636.963,3343.772,5637.822,3340.785,5637.011,3341.34Z" fill="#694420" opacity="0.5" style="mix-blend-mode: screen;isolation: isolate"/>
  </g>
</svg>
