<svg xmlns="http://www.w3.org/2000/svg" width="41.7" height="41.7" viewBox="0 0 41.7 41.7">
  <g id="sqft" transform="translate(-6889.891 -1812.65)">
    <path id="Path_254" data-name="Path 254" d="M6911.331,1812.65a4.069,4.069,0,0,1,1.08.847c.961.975,1.934,1.938,2.9,2.909a1.848,1.848,0,0,1,.01,2.886c-1.081,1.085-2.155,2.176-3.252,3.245a1.784,1.784,0,0,1-2.942-.513,1.689,1.689,0,0,1,.245-1.8c.13-.168.272-.325.454-.54h-13.683c.006.193.168.274.266.388a1.787,1.787,0,0,1-.029,2.527,1.82,1.82,0,0,1-2.565-.082q-1.695-1.668-3.363-3.364a1.783,1.783,0,0,1-.006-2.589c1.127-1.154,2.278-2.284,3.417-3.426a2.662,2.662,0,0,1,.788-.492h.977a1.873,1.873,0,0,1,1.274,1.5,2.274,2.274,0,0,1-.828,1.88h13.738c.009-.14-.088-.185-.149-.25a1.792,1.792,0,0,1,.611-3.133Z" fill="#b48618"/>
    <path id="Path_255" data-name="Path 255" d="M6931.591,1849.509a2.534,2.534,0,0,1-.695,1.081c-1.032,1.019-2.053,2.051-3.081,3.074a1.833,1.833,0,0,1-2.854.007q-1.642-1.637-3.278-3.281a1.73,1.73,0,0,1-.441-1.873,1.762,1.762,0,0,1,2.763-.81c.169.13.327.274.5.416.136-.148.083-.3.083-.444q0-6.385,0-12.772a2.029,2.029,0,0,0,0-.244c-.008-.063-.017-.151-.059-.18-.087-.06-.149.032-.2.086a1.985,1.985,0,0,1-1.143.651,1.764,1.764,0,0,1-1.822-.877,1.719,1.719,0,0,1,.192-2.012c1.2-1.236,2.412-2.459,3.659-3.646a1.717,1.717,0,0,1,2.4.046c1.2,1.158,2.365,2.351,3.543,3.532a2.448,2.448,0,0,1,.437.729v.976a1.86,1.86,0,0,1-1.5,1.274,2.207,2.207,0,0,1-1.879-.843v13.7c.211-.024.289-.186.408-.284a1.756,1.756,0,0,1,1.063-.453c.924-.038,1.445.321,1.908,1.331Z" fill="#b48618"/>
    <path id="Path_256" data-name="Path 256" d="M6902.934,1854.339c-2.6,0-5.207,0-7.81,0a5.185,5.185,0,0,1-5.22-5.216q-.009-5.147,0-10.292a1.785,1.785,0,0,1,1.758-1.931,1.812,1.812,0,0,1,1.789,1.92q0,5.025,0,10.048a1.715,1.715,0,0,0,1.932,1.923q7.567,0,15.133,0a1.718,1.718,0,0,0,1.931-1.925c0-.488-.007-.976,0-1.464a1.787,1.787,0,0,1,1.8-1.815,1.749,1.749,0,0,1,1.738,1.817,12.508,12.508,0,0,1-.152,3.036,5.225,5.225,0,0,1-5.013,3.9h-7.892Z" fill="#b48618"/>
    <path id="Path_257" data-name="Path 257" d="M6902.973,1828.244c2.6,0,5.208,0,7.811,0a5.185,5.185,0,0,1,5.212,5.226q.007,4.271,0,8.543a1.739,1.739,0,0,1-1.76,1.908,1.764,1.764,0,0,1-1.787-1.9q-.007-4.149,0-8.3a1.717,1.717,0,0,0-1.923-1.933q-7.608,0-15.216,0a1.688,1.688,0,0,0-1.86,1.753,1.824,1.824,0,0,1-1.825,1.722,1.773,1.773,0,0,1-1.721-1.806,5.189,5.189,0,0,1,5.137-5.217C6897.685,1828.238,6900.329,1828.245,6902.973,1828.244Z" fill="#b48618"/>
  </g>
</svg>
